<svg xmlns="http://www.w3.org/2000/svg" viewBox="0 0 10.28 10.67">
  <title>tyradelli-logo</title>
  <g id="Layer_2" data-name="Layer 2">
    <g id="Layer_1-2" data-name="Layer 1">
      <g>
        <path d="M9.6,6.75s.05-.09,0-.12A.37.37,0,0,0,9.6,6.75Z" style="fill: #2c2c2c;fill-rule: evenodd"/>
        <path d="M8.88,8.54l-.08.1.1-.09A.27.27,0,0,0,9,8.45l0,0Z" style="fill: #2c2c2c;fill-rule: evenodd"/>
        <path d="M8.5,8.42l0-.05,0-.06S8.49,8.39,8.5,8.42Z" style="fill: #2c2c2c;fill-rule: evenodd"/>
        <path d="M8.56,8.83s0,0-.06,0,0,0,0,0-.07.06-.07.08l.13-.1.12-.11C8.65,8.77,8.6,8.76,8.56,8.83Z" style="fill: #2c2c2c;fill-rule: evenodd"/>
        <path d="M8.73,8.71s.06-.05,0-.06S8.7,8.7,8.73,8.71Z" style="fill: #2c2c2c;fill-rule: evenodd"/>
        <path d="M8.17,8.95S8.06,9,8,9l0,0,0,0Z" style="fill: #2c2c2c;fill-rule: evenodd"/>
        <path d="M8.13,8.35s-.1.07-.1.09l.11-.06S8.14,8.36,8.13,8.35Z" style="fill: #2c2c2c;fill-rule: evenodd"/>
        <path d="M8.73,8.19l-.05.05s0,0,0,0,0,0,0,0l.09-.08S8.74,8.21,8.73,8.19Z" style="fill: #2c2c2c;fill-rule: evenodd"/>
        <path d="M8.17,9.08s.05,0,.05,0,0,0,0,0Z" style="fill: #2c2c2c;fill-rule: evenodd"/>
        <path d="M9.56,7.64l0-.06S9.54,7.63,9.56,7.64Z" style="fill: #2c2c2c;fill-rule: evenodd"/>
        <path d="M9.39,7.54l0,0,0,0-.07.1-.07.1-.07.1L9.09,8l-.14.17A.84.84,0,0,0,9.11,8l0-.06,0-.06.08-.11.14-.21a.73.73,0,0,0,.08-.18l-.06.1Z" style="fill: #2c2c2c;fill-rule: evenodd"/>
        <path d="M9.53,7.66s0,.06,0,.08A.07.07,0,0,0,9.53,7.66Z" style="fill: #2c2c2c;fill-rule: evenodd"/>
        <path d="M9.47,7.66a.38.38,0,0,0-.1.15A.38.38,0,0,0,9.47,7.66Z" style="fill: #2c2c2c;fill-rule: evenodd"/>
        <path d="M9.41,7.84s0,.06,0,0-.05,0,0,.07.07-.13.14-.19l0,0Z" style="fill: #2c2c2c;fill-rule: evenodd"/>
        <path d="M9,8.44s.08-.08.08-.1S9,8.42,9,8.44Z" style="fill: #2c2c2c;fill-rule: evenodd"/>
        <path d="M8.43,8.09s-.05,0-.05.08S8.45,8.12,8.43,8.09Z" style="fill: #2c2c2c;fill-rule: evenodd"/>
        <path d="M8.27,8.59a.09.09,0,0,0,.06-.07l0,0A.05.05,0,0,0,8.27,8.59Z" style="fill: #2c2c2c;fill-rule: evenodd"/>
        <path d="M8.76,8.39a0,0,0,0,0,0-.05S8.75,8.38,8.76,8.39Z" style="fill: #2c2c2c;fill-rule: evenodd"/>
        <path d="M8.39,7.49l0,0,0,0a.08.08,0,0,0,0-.05l0,.06S8.38,7.47,8.39,7.49Z" style="fill: #2c2c2c;fill-rule: evenodd"/>
        <path d="M8.89,7.89S8.82,8,8.82,8h0S8.92,7.92,8.89,7.89Z" style="fill: #2c2c2c;fill-rule: evenodd"/>
        <path d="M9.19,7.56c.05,0,0,0,0-.09s0,0,0,0A.09.09,0,0,0,9.19,7.56Z" style="fill: #2c2c2c;fill-rule: evenodd"/>
        <path d="M8.2,8.31c0-.05.11-.06.11-.11S8.2,8.26,8.2,8.31Z" style="fill: #2c2c2c;fill-rule: evenodd"/>
        <path d="M8.14,7.79l0,0,0,0a.12.12,0,0,0,0,0l-.05,0S8.13,7.77,8.14,7.79Z" style="fill: #2c2c2c;fill-rule: evenodd"/>
        <path d="M8,7.95s.05,0,0,0S7.95,7.93,8,7.95Z" style="fill: #2c2c2c;fill-rule: evenodd"/>
        <path d="M8.87,8s0,0,0,0,0,0,0,0L8.82,8s0,0,0,0A.34.34,0,0,0,8.87,8Z" style="fill: #2c2c2c;fill-rule: evenodd"/>
        <path d="M7.55,8.24s.05,0,.06-.06S7.54,8.21,7.55,8.24Z" style="fill: #2c2c2c;fill-rule: evenodd"/>
        <path d="M8.85,8.11l0,0c0,.06-.06,0-.09.1S8.81,8.14,8.85,8.11Z" style="fill: #2c2c2c;fill-rule: evenodd"/>
        <path d="M7.79,8.06s-.05,0,0,.05S7.79,8.09,7.79,8.06Z" style="fill: #2c2c2c;fill-rule: evenodd"/>
        <path d="M8.33,8.6l0,0s0,0,0,0l0,0S8.32,8.59,8.33,8.6Z" style="fill: #2c2c2c;fill-rule: evenodd"/>
        <path d="M7.75,8.06s-.07,0-.08,0h0S7.75,8.09,7.75,8.06Z" style="fill: #2c2c2c;fill-rule: evenodd"/>
        <path d="M9.8,7s0-.05,0-.07A.07.07,0,0,0,9.8,7Z" style="fill: #2c2c2c;fill-rule: evenodd"/>
        <path d="M9.78,6.71s.08-.15.05-.19,0,0,0,.06S9.74,6.69,9.78,6.71Z" style="fill: #2c2c2c;fill-rule: evenodd"/>
        <path d="M10.11,4.82v0a.35.35,0,0,0,0,0s0,0,0,0,0,0,0-.05,0,0,0,0S10.12,4.82,10.11,4.82Z" style="fill: #2c2c2c;fill-rule: evenodd"/>
        <path d="M10,4.95s0-.11,0-.09A.71.71,0,0,1,10,5Z" style="fill: #2c2c2c;fill-rule: evenodd"/>
        <path d="M10.1,5.42v.19c0,.06,0,.06,0,0a.65.65,0,0,0,0-.1.79.79,0,0,0,0-.09.57.57,0,0,0,0-.08.38.38,0,0,0,0-.07.62.62,0,0,1,0,.07Z" style="fill: #2c2c2c;fill-rule: evenodd"/>
        <path d="M9.92,6.15c0-.08,0,0,0,.07A.15.15,0,0,0,9.92,6.15Z" style="fill: #2c2c2c;fill-rule: evenodd"/>
        <path d="M10,5.9c0,.06,0,.13,0,.15S10,6,10,5.9Z" style="fill: #2c2c2c;fill-rule: evenodd"/>
        <path d="M10.08,5.77v.1a.23.23,0,0,0,0,.16.46.46,0,0,1,0-.18.43.43,0,0,0,0-.08.2.2,0,0,0,0-.08Z" style="fill: #2c2c2c;fill-rule: evenodd"/>
        <path d="M10.11,5s0,0,0,0,0,0,0,0v.08s0,.09,0,.1,0,0,0,0,0-.11,0-.19,0,0,0-.05,0,0,0-.06A.1.1,0,0,0,10.11,5Z" style="fill: #2c2c2c;fill-rule: evenodd"/>
        <path d="M10.11,4.53c0-.05,0-.09,0-.11S10.09,4.52,10.11,4.53Z" style="fill: #2c2c2c;fill-rule: evenodd"/>
        <path d="M9.67,3.4s0,0,0,.05,0,0,0,0,0-.05,0,0S9.68,3.41,9.67,3.4Z" style="fill: #2c2c2c;fill-rule: evenodd"/>
        <path d="M10.11,4.77s0,0,0,0S10.13,4.78,10.11,4.77Z" style="fill: #2c2c2c;fill-rule: evenodd"/>
        <path d="M9.56,3.22s0-.09-.06-.09S9.53,3.22,9.56,3.22Z" style="fill: #2c2c2c;fill-rule: evenodd"/>
        <path d="M9.81,4V4.1s0,.05,0,0v0s0,0,0-.06,0,0,0,0h0S9.82,4,9.81,4Z" style="fill: #2c2c2c;fill-rule: evenodd"/>
        <path d="M9.86,4.15s0,.06,0,.09S9.89,4.17,9.86,4.15Z" style="fill: #2c2c2c;fill-rule: evenodd"/>
        <path d="M9.24,7.62a.17.17,0,0,1,.05-.1s0,0,0,0a.21.21,0,0,1-.08.11S9.23,7.61,9.24,7.62Z" style="fill: #2c2c2c;fill-rule: evenodd"/>
        <path d="M9.9,6.49s0,0,0,.07S9.88,6.51,9.9,6.49Z" style="fill: #2c2c2c;fill-rule: evenodd"/>
        <path d="M9.64,7.52a.13.13,0,0,0,0-.08S9.62,7.51,9.64,7.52Z" style="fill: #2c2c2c;fill-rule: evenodd"/>
        <path d="M4,.34H4Z" style="fill: #2c2c2c;fill-rule: evenodd"/>
        <path d="M9.66,6.74s0-.07,0-.07S9.64,6.75,9.66,6.74Z" style="fill: #2c2c2c;fill-rule: evenodd"/>
        <path d="M9.12,7.68s0,0,0,0,.06-.06,0-.08Z" style="fill: #2c2c2c;fill-rule: evenodd"/>
        <path d="M9.15,7.72s0,0,0,0,0,.07,0,0,0-.07,0-.09S9.14,7.71,9.15,7.72Z" style="fill: #2c2c2c;fill-rule: evenodd"/>
        <path d="M9.73,6.8c0-.08,0,0,0,0s0,0,0,0,0,0,0,0S9.71,6.83,9.73,6.8Z" style="fill: #2c2c2c;fill-rule: evenodd"/>
        <path d="M10,6.47s0-.06,0-.08S10,6.45,10,6.47Z" style="fill: #2c2c2c;fill-rule: evenodd"/>
        <path d="M9.86,6.2s0,0,0,.06a.19.19,0,0,0,0,.08C9.85,6.27,9.82,6.24,9.86,6.2Z" style="fill: #2c2c2c;fill-rule: evenodd"/>
        <path d="M9.68,6.57s0-.12,0-.13S9.66,6.55,9.68,6.57Z" style="fill: #2c2c2c;fill-rule: evenodd"/>
        <path d="M9.82,6.35c0,.07,0,0,0,.1h0v0s0-.06,0-.08,0,0,0,0S9.84,6.35,9.82,6.35Z" style="fill: #2c2c2c;fill-rule: evenodd"/>
        <path d="M10,6.28s0,.08,0,.09a.22.22,0,0,0,0-.1Z" style="fill: #2c2c2c;fill-rule: evenodd"/>
        <path d="M10.09,5.9c0,.05,0,.06,0,.1s-.06.14-.1.19,0,0,0-.05,0-.06,0-.07a.73.73,0,0,0,0,.23,1,1,0,0,1,0,.23s0,0,0,0,0,0,0,0l0,.06s0,0,0,0v.08s0,0,0,0a.6.6,0,0,0-.07.13l-.06.14s0,0,0-.05,0,0,0,.11,0,0,0,0l.06-.09A.16.16,0,0,1,9.83,7s0,0,0,.07l0-.08,0-.08,0-.09,0-.09s-.06.1-.07.06.08-.1,0-.11,0,.07,0,.09,0-.14,0-.12,0-.05,0-.07,0,0,.05-.08h0c0-.06,0-.11,0-.16s0,.07,0,0,0-.09,0,0a.09.09,0,0,0,0-.05,0,0,0,0,1,0-.05s0,.07,0,0,0,0,0,0V6.21s0,0,0,0,0,0,0-.05a.18.18,0,0,0,0-.11s0,0,0,0,0-.12,0-.13S10.09,5.93,10.09,5.9Z" style="fill: #2c2c2c;fill-rule: evenodd"/>
        <path d="M6.43.24s.07,0,.08,0,0-.06-.08,0S6.44.24,6.43.24Z" style="fill: #2c2c2c;fill-rule: evenodd"/>
        <path d="M5.15,8.08l.05,0c0-.05,0-.07-.08-.08S5.16,8,5.15,8.08Z" style="fill: #2c2c2c;fill-rule: evenodd"/>
        <path d="M6.84.35a.55.55,0,0,0-.13,0A.24.24,0,0,0,6.84.35Z" style="fill: #2c2c2c;fill-rule: evenodd"/>
        <path d="M7,.46S7,.4,7,.42,7,.45,7,.46Z" style="fill: #2c2c2c;fill-rule: evenodd"/>
        <path d="M5,8l0,0S5,8,5,8,5,8,5,8Z" style="fill: #2c2c2c;fill-rule: evenodd"/>
        <path d="M6.95.35s0,0,0,0l0,0S7,.36,6.95.35Z" style="fill: #2c2c2c;fill-rule: evenodd"/>
        <path d="M5.34,8.06s0,0-.06,0,0,.09.08.1S5.33,8.09,5.34,8.06Z" style="fill: #2c2c2c;fill-rule: evenodd"/>
        <path d="M7.28.52a.22.22,0,0,0-.11,0A.26.26,0,0,0,7.28.52Z" style="fill: #2c2c2c;fill-rule: evenodd"/>
        <path d="M7.15.58a.31.31,0,0,0,.13,0s0,0-.08,0,0,0,0,0S7.19.58,7.15.58Z" style="fill: #2c2c2c;fill-rule: evenodd"/>
        <path d="M7.06.38l0,0s0,0,0,0S7.05.39,7.06.38Z" style="fill: #2c2c2c;fill-rule: evenodd"/>
        <path d="M4.85,8s0,.06,0,.06,0,0,0,0S4.91,8,4.85,8Z" style="fill: #2c2c2c;fill-rule: evenodd"/>
        <path d="M6.38.34s.05,0,.07,0,0,0,0,0,0,0,0,0S6.4.32,6.38.34Z" style="fill: #2c2c2c;fill-rule: evenodd"/>
        <path d="M7.51,8.95s0,.1,0,.14h0s0,0,0,0,0,0,0,0,0-.07,0-.1Z" style="fill: #2c2c2c;fill-rule: evenodd"/>
        <path d="M7.47,9.2c.06,0,0,0,.08-.08s0,0,0,0S7.43,9.18,7.47,9.2Z" style="fill: #2c2c2c;fill-rule: evenodd"/>
        <path d="M2.72.61s0,0,0,0-.06,0-.07.07S2.72.63,2.72.61Z" style="fill: #2c2c2c;fill-rule: evenodd"/>
        <path d="M7.86,9.14S8,9.07,8,9.06,7.88,9.11,7.86,9.14Z" style="fill: #2c2c2c;fill-rule: evenodd"/>
        <path d="M6.19.21s0,0,0,0,0,0,.08,0h0l.15,0L6.28.2a.09.09,0,0,0-.07,0h0l0,0,0,0S6.16.23,6.19.21Z" style="fill: #2c2c2c;fill-rule: evenodd"/>
        <path d="M3.94.14,4,.12l.09,0,.09,0H4.3s-.11,0-.14,0,.06,0,0,0H4l-.14,0-.14,0-.14,0s0,0,0,0l.15,0Z" style="fill: #2c2c2c;fill-rule: evenodd"/>
        <path d="M8.07,7.93s.09-.07.1-.12A.47.47,0,0,0,8.07,7.93Z" style="fill: #2c2c2c;fill-rule: evenodd"/>
        <path d="M4,7.76s0,0,.05,0,0,0,0,0Z" style="fill: #2c2c2c;fill-rule: evenodd"/>
        <path d="M6.06.22l0,0s0,0,0,0h0s0,0,0,0,0,0,0,0a.13.13,0,0,1-.09,0S6.07.21,6.06.22Z" style="fill: #2c2c2c;fill-rule: evenodd"/>
        <path d="M9.53,2.71a1.16,1.16,0,0,1,.07.15l0,.08,0,0V3l.06.18c0,.06,0,.12.07.18a2.61,2.61,0,0,0-.07-.28h0l0,.07.06.13.06.14,0,.07,0,.08s0,.13,0,.12a.75.75,0,0,0,0-.11l-.13-.29-.08-.16,0-.07,0,0A1.37,1.37,0,0,0,9.53,2.71Z" style="fill: #2c2c2c;fill-rule: evenodd"/>
        <path d="M4.43.18s0,0,.07,0l0,0h0l.1,0c-.05,0-.11,0-.15,0H4.47s-.07,0,0,0h0Z" style="fill: #2c2c2c;fill-rule: evenodd"/>
        <path d="M3,.59H3s0,0,0,0,0,0,0,0l0,0S3,.61,3,.59Z" style="fill: #2c2c2c;fill-rule: evenodd"/>
        <path d="M4.29.18A.19.19,0,0,0,4.2.2S4.28.2,4.29.18Z" style="fill: #2c2c2c;fill-rule: evenodd"/>
        <path d="M2.86.62h0S2.86.62,2.86.62Z" style="fill: #2c2c2c;fill-rule: evenodd"/>
        <path d="M2.79.76s.06,0,0,0l0,0S2.78.75,2.79.76Z" style="fill: #2c2c2c;fill-rule: evenodd"/>
        <path d="M4.06,7.72H4A0,0,0,1,0,4.06,7.72Z" style="fill: #2c2c2c;fill-rule: evenodd"/>
        <path d="M8.49,2.66s0,.09.07.07S8.52,2.65,8.49,2.66Z" style="fill: #2c2c2c;fill-rule: evenodd"/>
        <path d="M8.67,1.79s0,0,0,0,0,0,0,0l0,0S8.68,1.78,8.67,1.79Z" style="fill: #2c2c2c;fill-rule: evenodd"/>
        <path d="M8.75,1.46s.07.06.08.09S8.77,1.46,8.75,1.46Z" style="fill: #2c2c2c;fill-rule: evenodd"/>
        <path d="M9.57,3.08a.06.06,0,0,0,0-.07s0,0,0,0,0-.08,0-.11,0,0,0,0,0,0-.06-.08a.06.06,0,0,0,0,0l0,0,0,0,0-.05-.06-.1v0l0,0,0-.05L9.23,2.4s0,.1.07.07a.35.35,0,0,1-.06-.08s0,0,0,0,0,0,0-.06l0,.07h0a.5.5,0,0,0-.08-.12l0,0h0l0-.06h0l0,0L9,2l0,0h0l0,0-.08-.09,0-.06h0L8.7,1.71l0,0a.36.36,0,0,0-.09-.11l-.12-.1.1.1.06,0,0,.05s0,0,0,0l-.09-.09-.07-.06.12.12.11.1,0,0,.08.1.07.1.06.1H9s0,.05,0,.08a.09.09,0,0,1,0,.06v0l0-.06s0,0,0,.06l0,0h0l.06.08h0l.1.15,0-.07h0a.73.73,0,0,1,.1.17l0,0s0,0,0,0l0,0v0s0,.06.08.08,0,0,0,0,0,.07,0,.06,0,0,0,0l0,.07,0,.06A.79.79,0,0,0,9.53,3s0,0,0,0l0,.09.06.07A.29.29,0,0,0,9.57,3.08Zm-.42-.71h0Z" style="fill: #2c2c2c;fill-rule: evenodd"/>
        <path d="M5.93.2A.11.11,0,0,0,6,.21s0,0,0,0S5.92.18,5.93.2Z" style="fill: #2c2c2c;fill-rule: evenodd"/>
        <path d="M4.55,7.95s0,0-.07,0,0,0,.06,0S4.55,8,4.55,7.95Z" style="fill: #2c2c2c;fill-rule: evenodd"/>
        <path d="M7.39.54a.12.12,0,0,0,0,.08S7.44.56,7.39.54Z" style="fill: #2c2c2c;fill-rule: evenodd"/>
        <path d="M7.36.66s.06,0,.06,0a.1.1,0,0,0-.08,0c.08,0,0,0,0,0Z" style="fill: #2c2c2c;fill-rule: evenodd"/>
        <path d="M7.31.5c-.06-.06-.1,0-.16-.09v0C7.23.45,7.26.51,7.31.5Z" style="fill: #2c2c2c;fill-rule: evenodd"/>
        <path d="M8.79,1.71s0,.08.07.08,0,0,0-.05-.1-.09-.14-.1S8.79,1.74,8.79,1.71Z" style="fill: #2c2c2c;fill-rule: evenodd"/>
        <path d="M8.41,1.51s0-.05-.06,0,0,0,0,0h.06Z" style="fill: #2c2c2c;fill-rule: evenodd"/>
        <path d="M8.68,1.62s0,0,0,0l0,0,0,0s0,0,0,0,0,0-.06,0,0-.06,0,0l.05.08,0,0Z" style="fill: #2c2c2c;fill-rule: evenodd"/>
        <path d="M8.55,1.49l0,0s0,0,0,0S8.55,1.51,8.55,1.49Z" style="fill: #2c2c2c;fill-rule: evenodd"/>
        <path d="M8.54,1.66l.06.06s0,0,0,0c.17.13,0,0,0-.05s-.06-.07-.08-.1,0,0-.05,0,0,0,0,0,0,0,.07,0S8.51,1.63,8.54,1.66Zm0,0,0,0,0,0,0,0S8.54,1.63,8.56,1.64Z" style="fill: #2c2c2c;fill-rule: evenodd"/>
        <path d="M4.6,0h0s-.1,0-.12,0L4.6,0Z" style="fill: #2c2c2c;fill-rule: evenodd"/>
        <path d="M9,6.66s0,.05,0,.06S9,6.67,9,6.66Z" style="fill: #2c2c2c;fill-rule: evenodd"/>
        <path d="M8.87,6.94s0-.05,0-.07S8.86,6.93,8.87,6.94Z" style="fill: #2c2c2c;fill-rule: evenodd"/>
        <path d="M9.2,6.18s0,.06,0,.06A0,0,0,0,0,9.2,6.18Z" style="fill: #2c2c2c;fill-rule: evenodd"/>
        <path d="M7.36,8.22c-.11.07,0,0,0,0Z" style="fill: #2c2c2c;fill-rule: evenodd"/>
        <path d="M8,8.4a.41.41,0,0,0-.12.11l0,.07s0,0,.06,0a0,0,0,0,0,0,0S8,8.44,8,8.4Z" style="fill: #2c2c2c;fill-rule: evenodd"/>
        <path d="M7.78,8a.06.06,0,0,0,0,0s0,0,0,0l0,0s0,0,0,0l0,0s0-.05,0-.06L7.8,8s0,0,0,0S7.8,8,7.78,8Z" style="fill: #2c2c2c;fill-rule: evenodd"/>
        <path d="M8.2,7.56s0,0,0-.05S8.19,7.55,8.2,7.56Z" style="fill: #2c2c2c;fill-rule: evenodd"/>
        <path d="M8.62,7.86l0-.06S8.61,7.85,8.62,7.86Z" style="fill: #2c2c2c;fill-rule: evenodd"/>
        <path d="M8.09,7.42l0,0S8.08,7.42,8.09,7.42Z" style="fill: #2c2c2c;fill-rule: evenodd"/>
        <path d="M8.69,7.76a.91.91,0,0,0,.11-.17A1.21,1.21,0,0,0,8.69,7.76Z" style="fill: #2c2c2c;fill-rule: evenodd"/>
        <path d="M8.86,7.63a.2.2,0,0,0,.06-.08S8.87,7.61,8.86,7.63Z" style="fill: #2c2c2c;fill-rule: evenodd"/>
        <path d="M9,7.49s0,0,0,0l0,0S9,7.48,9,7.49Z" style="fill: #2c2c2c;fill-rule: evenodd"/>
        <path d="M8.87,7.48s0,0,.06-.06a.41.41,0,0,0,0-.09l0,.08Z" style="fill: #2c2c2c;fill-rule: evenodd"/>
        <path d="M9.56,7.74s0,0,0,0S9.62,7.64,9.56,7.74Z" style="fill: #2c2c2c;fill-rule: evenodd"/>
        <path d="M8.52,7.11s0,.06,0,0S8.54,7.1,8.52,7.11Z" style="fill: #2c2c2c;fill-rule: evenodd"/>
        <path d="M8.93,7.16s0-.07,0-.1S8.92,7.15,8.93,7.16Z" style="fill: #2c2c2c;fill-rule: evenodd"/>
        <path d="M9,7.16H9l0,0s0,0,0,0S9,7.16,9,7.16Z" style="fill: #2c2c2c;fill-rule: evenodd"/>
        <path d="M9,6.91s0,0,0,0l0,0S9,7,9,7s0,0,0,0S9,6.91,9,6.91Z" style="fill: #2c2c2c;fill-rule: evenodd"/>
        <path d="M8.75,6.69s0-.06,0-.09l0,.06S8.74,6.7,8.75,6.69Z" style="fill: #2c2c2c;fill-rule: evenodd"/>
        <path d="M8.95,6.6l0,0S9,6.6,8.95,6.6Z" style="fill: #2c2c2c;fill-rule: evenodd"/>
        <path d="M9,6.35s0,.08,0,.1A.39.39,0,0,0,9,6.35Z" style="fill: #2c2c2c;fill-rule: evenodd"/>
        <path d="M9.62,6.34s0,0,0,.06S9.63,6.35,9.62,6.34Z" style="fill: #2c2c2c;fill-rule: evenodd"/>
        <path d="M9.28,5.93a.1.1,0,0,0,0,0v0a.22.22,0,0,0,0,0Z" style="fill: #2c2c2c;fill-rule: evenodd"/>
        <path d="M9.32,5.72v0s0,0,0,.05a.46.46,0,0,0,0-.13A.23.23,0,0,1,9.32,5.72Z" style="fill: #2c2c2c;fill-rule: evenodd"/>
        <path d="M9.81,5.57s0,.05,0,.07S9.81,5.61,9.81,5.57Z" style="fill: #2c2c2c;fill-rule: evenodd"/>
        <path d="M9.37,5.46s0,.09,0,.1,0-.06,0-.07S9.38,5.45,9.37,5.46Z" style="fill: #2c2c2c;fill-rule: evenodd"/>
        <path d="M9.37,5.44s0,0,0-.05,0,0,0,0,0-.08,0-.09,0,.07,0,.1h0s0,0,0,0Z" style="fill: #2c2c2c;fill-rule: evenodd"/>
        <path d="M8.84,5.19s0,0,0,0S8.83,5.19,8.84,5.19Z" style="fill: #2c2c2c;fill-rule: evenodd"/>
        <path d="M9.11,4.93s0,.06,0,0A.17.17,0,0,1,9.11,4.93Z" style="fill: #2c2c2c;fill-rule: evenodd"/>
        <path d="M8.94,4.74a.13.13,0,0,0,0,.06S8.95,4.74,8.94,4.74Z" style="fill: #2c2c2c;fill-rule: evenodd"/>
        <path d="M8.38,4.7v0h0a.06.06,0,0,0,0,0S8.37,4.69,8.38,4.7Z" style="fill: #2c2c2c;fill-rule: evenodd"/>
        <path d="M9.17,4.07l0-.11a.88.88,0,0,0,0-.1.48.48,0,0,0,0-.1l0,.11,0,.1,0,.1,0,.1A.74.74,0,0,1,9.17,4.07Z" style="fill: #2c2c2c;fill-rule: evenodd"/>
        <path d="M8.63,4.27s0,0,0,0Z" style="fill: #2c2c2c;fill-rule: evenodd"/>
        <path d="M8.49,4.29s0,0,0-.06S8.48,4.28,8.49,4.29Z" style="fill: #2c2c2c;fill-rule: evenodd"/>
        <path d="M8.58,4.09a.17.17,0,0,0,0,.06S8.59,4.08,8.58,4.09Z" style="fill: #2c2c2c;fill-rule: evenodd"/>
        <path d="M8.52,4s0,0,0,0,0,0,0,0S8.52,4,8.52,4Z" style="fill: #2c2c2c;fill-rule: evenodd"/>
        <path d="M8.52,4a.5.5,0,0,1,0-.07S8.51,4,8.52,4Z" style="fill: #2c2c2c;fill-rule: evenodd"/>
        <path d="M9.08,3.75a.82.82,0,0,0,0-.11s0,0,0,.05S9.07,3.76,9.08,3.75Z" style="fill: #2c2c2c;fill-rule: evenodd"/>
        <path d="M8.87,3.6s0,.1,0,.06,0,0,0-.06h0Z" style="fill: #2c2c2c;fill-rule: evenodd"/>
        <path d="M8.85,3.49l0-.06A.1.1,0,0,0,8.85,3.49Z" style="fill: #2c2c2c;fill-rule: evenodd"/>
        <path d="M8.37,3.64s0,0,0-.06a.08.08,0,0,1,0,0Z" style="fill: #2c2c2c;fill-rule: evenodd"/>
        <path d="M8.11,3.72v0h0S8.1,3.73,8.11,3.72Z" style="fill: #2c2c2c;fill-rule: evenodd"/>
        <path d="M8.24,3.27v0l0,0S8.23,3.25,8.24,3.27Z" style="fill: #2c2c2c;fill-rule: evenodd"/>
        <path d="M9,2.3a.59.59,0,0,0,.08.11A.7.7,0,0,0,9,2.3Z" style="fill: #2c2c2c;fill-rule: evenodd"/>
        <path d="M8,3.11l0,0A.06.06,0,0,0,8,3.11Z" style="fill: #2c2c2c;fill-rule: evenodd"/>
        <path d="M8,2.92A.15.15,0,0,1,8.05,3H8s0,0,0,0h0s0,0,0,0h0l0-.05Z" style="fill: #2c2c2c;fill-rule: evenodd"/>
        <path d="M8,2.92,7.9,2.86s0,0,0,.05,0,0,0,0S8,3,8,3Z" style="fill: #2c2c2c;fill-rule: evenodd"/>
        <path d="M7.78,2.72s0,0,0,0l0,0,0,0h0A.15.15,0,0,1,7.78,2.72Z" style="fill: #2c2c2c;fill-rule: evenodd"/>
        <path d="M8.16,2.31s0,0,0,.07S8.18,2.33,8.16,2.31Z" style="fill: #2c2c2c;fill-rule: evenodd"/>
        <path d="M7.7,2.63s0,0,0,0,0,0,0,0,0,0,0,0Z" style="fill: #2c2c2c;fill-rule: evenodd"/>
        <path d="M7.7,2.72l0,0S7.69,2.72,7.7,2.72Z" style="fill: #2c2c2c;fill-rule: evenodd"/>
        <path d="M7.64,2.58l.05,0Z" style="fill: #2c2c2c;fill-rule: evenodd"/>
        <path d="M7.65,2.56s0,0,0,0Z" style="fill: #2c2c2c;fill-rule: evenodd"/>
        <path d="M7.57,2.59s0-.05-.06-.06Z" style="fill: #2c2c2c;fill-rule: evenodd"/>
        <path d="M8.44,1.48l0,0s0,0,0,0S8.44,1.47,8.44,1.48Z" style="fill: #2c2c2c;fill-rule: evenodd"/>
        <path d="M7.6,2.47h0l0,0,0,0S7.6,2.49,7.6,2.47Z" style="fill: #2c2c2c;fill-rule: evenodd"/>
        <path d="M7.34,2.6l0,0s0,0,0,0S7.33,2.59,7.34,2.6Z" style="fill: #2c2c2c;fill-rule: evenodd"/>
        <path d="M8.3,1.43s0,0,0,0S8.29,1.42,8.3,1.43Z" style="fill: #2c2c2c;fill-rule: evenodd"/>
        <path d="M7.36,2.32l0,0s0,0,0,0S7.35,2.32,7.36,2.32Z" style="fill: #2c2c2c;fill-rule: evenodd"/>
        <path d="M7.29,2.22s0,0,0,0h0S7.32,2.23,7.29,2.22Z" style="fill: #2c2c2c;fill-rule: evenodd"/>
        <path d="M7.1,2.31s0,0,.09.06S7.11,2.29,7.1,2.31Z" style="fill: #2c2c2c;fill-rule: evenodd"/>
        <path d="M7.19,2.17l.05,0s0,0,0,0,0,0,0,0S7.19,2.17,7.19,2.17Z" style="fill: #2c2c2c;fill-rule: evenodd"/>
        <path d="M7.21,2.22l0,0-.05,0,0,0Z" style="fill: #2c2c2c;fill-rule: evenodd"/>
        <path d="M7.9,1.08A.5.5,0,0,0,7.79,1S7.87,1.07,7.9,1.08Z" style="fill: #2c2c2c;fill-rule: evenodd"/>
        <path d="M6.84,2.15l-.07,0h0l0,0,.05,0s0,0,0,0,0,0,0,0Z" style="fill: #2c2c2c;fill-rule: evenodd"/>
        <path d="M6.87,2l0,0s0,0,0,0S6.86,2,6.87,2Z" style="fill: #2c2c2c;fill-rule: evenodd"/>
        <path d="M6.77,2.14l0,0S6.78,2.16,6.77,2.14Z" style="fill: #2c2c2c;fill-rule: evenodd"/>
        <path d="M6.83,2s-.06,0-.08,0Z" style="fill: #2c2c2c;fill-rule: evenodd"/>
        <path d="M6.7,1.88A.52.52,0,0,0,6.83,2C6.78,1.93,6.74,1.88,6.7,1.88Z" style="fill: #2c2c2c;fill-rule: evenodd"/>
        <path d="M6.71,2.09s0,0,0,0l0,0S6.7,2.08,6.71,2.09Z" style="fill: #2c2c2c;fill-rule: evenodd"/>
        <path d="M6.74,2l0,0,0,0S6.75,2,6.74,2Z" style="fill: #2c2c2c;fill-rule: evenodd"/>
        <path d="M6.72,2h0Z" style="fill: #2c2c2c;fill-rule: evenodd"/>
        <path d="M6.66,1.92l-.07,0s0,0,0,0A.2.2,0,0,0,6.66,1.92Z" style="fill: #2c2c2c;fill-rule: evenodd"/>
        <path d="M6.69,1.16l0,0s0,0,0,0S6.69,1.15,6.69,1.16Z" style="fill: #2c2c2c;fill-rule: evenodd"/>
        <path d="M6.32,1.77s0,0,0,0h.07l-.11,0S6.33,1.77,6.32,1.77Z" style="fill: #2c2c2c;fill-rule: evenodd"/>
        <path d="M6.5,1.06h.05l0,0Z" style="fill: #2c2c2c;fill-rule: evenodd"/>
        <path d="M5.94,1.7h0Z" style="fill: #2c2c2c;fill-rule: evenodd"/>
        <path d="M6.05,1h0Z" style="fill: #2c2c2c;fill-rule: evenodd"/>
        <path d="M5.35,1.64h0Z" style="fill: #2c2c2c;fill-rule: evenodd"/>
        <path d="M4.78,1.66h0S4.78,1.65,4.78,1.66Z" style="fill: #2c2c2c;fill-rule: evenodd"/>
        <path d="M2.81.66l.07,0A.23.23,0,0,0,2.81.66Z" style="fill: #2c2c2c;fill-rule: evenodd"/>
        <path d="M2.73.79s0,0,0,0-.06,0-.06,0Z" style="fill: #2c2c2c;fill-rule: evenodd"/>
        <path d="M2.68.77l-.1.06Z" style="fill: #2c2c2c;fill-rule: evenodd"/>
        <path d="M2.55.9,2.66.83h0Z" style="fill: #2c2c2c;fill-rule: evenodd"/>
        <path d="M1.39,1.68h0l0,.06S1.38,1.68,1.39,1.68Z" style="fill: #2c2c2c;fill-rule: evenodd"/>
        <path d="M.86,2.25l0,0s0,0,0,0l0,0Z" style="fill: #2c2c2c;fill-rule: evenodd"/>
        <path d="M0,5s0-.09,0-.1S0,5,0,5Z" style="fill: #2c2c2c;fill-rule: evenodd"/>
        <path d="M0,5.79s0,.1,0,.1A.41.41,0,0,1,0,5.79Z" style="fill: #2c2c2c;fill-rule: evenodd"/>
        <path d="M.45,7.17s0-.08,0-.06,0,.05,0,.09S.46,7.19.45,7.17Z" style="fill: #2c2c2c;fill-rule: evenodd"/>
        <path d="M2.18,9.21l0,0s0,0,0,0S2.19,9.21,2.18,9.21Z" style="fill: #2c2c2c;fill-rule: evenodd"/>
        <path d="M7.82,8.71s0,0,0,0,0,0,.07-.07Z" style="fill: #2c2c2c;fill-rule: evenodd"/>
        <path d="M7.78,8.6v0s.07,0,.07-.06S7.79,8.6,7.78,8.6Z" style="fill: #2c2c2c;fill-rule: evenodd"/>
        <polygon points="0.36 3.29 0.36 3.29 0.36 3.29 0.36 3.29" style="fill: #2c2c2c;fill-rule: evenodd"/>
        <path d="M8.84,2.07S8.76,1.95,8.75,2l0,0s0,0,0,0L8.73,2s0-.05,0,0c-.13-.12-.15-.18-.27-.29s0-.07-.09-.1-.08-.07-.07-.07l-.06,0-.05-.06.1.08.08.06-.06-.06-.06,0L8.2,1.35s0,0,0,0,0,0,0,0l-.1-.08L8,1.18l0,0c-.06,0-.11-.09-.13-.08L8,1.17l-.16-.12,0,0L7.74,1l0,0,0,0-.06,0L7.47.84A.48.48,0,0,1,7.34.78h0s0,0,0,0a2,2,0,0,1-.2-.11h-.1L7,.59H7l.09,0,.08,0,.11,0,.07,0h0l0,0,.08,0s0,0,0,0,0,0,0,0,0,0,0,0l.07.05,0,0,0,0L7.87,1l0,0h0l0,0L8,1.15l.08.07.08.07.08.07.08.07L8.3,1.35,8.25,1.3s0,0,.06,0l-.05-.05.06.05,0,0c-.05,0,0,0,0,0s0,0-.07-.07,0,0,0,0l0,0-.12-.08L8,1.11,8,1.06,7.88,1,7.75.94s0,0,0,0A.24.24,0,0,1,7.65.85.38.38,0,0,1,7.53.8L7.41.74,7.35.7l-.08,0L7.12.6h0L7,.57s0,0,.05,0L7,.54a.08.08,0,0,0-.08,0h0s0,0,0,0h0s0,0,.08,0l.06,0,.06,0s0,0,0-.05,0,0-.06,0L6.93.45s-.1,0-.15,0l.05,0h0s-.07,0-.08-.08a.12.12,0,0,1-.09,0,.26.26,0,0,0-.1,0s0,0-.05,0,0,.08.1.11h0l0,0h0s0,0,0,0h0l-.06,0,0,0H6.35s0,0,0,0H6.31s0,0,.05,0,0,0,0,0H6.31s0,0,0,0a.05.05,0,0,1,0,0h0s-.07,0,0,0h0s0,0,0,0,0,0,0,0H6.12l.1,0,.1,0s0,0,0,0l-.1,0L6.1.29h0a.07.07,0,0,0,.06,0,.1.1,0,0,0,.09,0s0,0,0,0H6a.15.15,0,0,0-.08,0H5.86s0,0,0,0h.07s-.06,0-.07,0,0,0-.07,0l0,0h0s0,0,0,0H5.63s0,0,0,0-.05,0-.06,0,0,0,.05,0H5.7l.07,0a.71.71,0,0,0,.18,0H6a.1.1,0,0,0,.08,0H6s0,0,0,0,0,0,0,0H6a1,1,0,0,0-.16,0s0,0,0,0l-.06,0H5.65a.2.2,0,0,1-.12,0s0,0,0,0A2.8,2.8,0,0,0,5,0H4.78l-.23,0H4.41v0H4.32l0,0h0v0a.3.3,0,0,1-.19,0s.05,0,0,0H4l0,0H4l0,0s-.1,0-.16,0,.08,0,.08,0-.05,0-.07,0l0,0-.06,0-.07,0,0,0L3.5.31s0,0,0,0l.06,0h0s0,0,0,0h0s0,0,0,0a.28.28,0,0,1,.1,0h.06a.87.87,0,0,1,.2,0H4s0,0,0,0,.12,0,.06,0L4.34.15h0l.06,0h.08l.16,0h.17s0,0,0,0H5a.28.28,0,0,0,.12,0h.16s.07,0,.07,0h.18s.06,0,.08,0,0,0,0,0-.09,0,0,0-.13,0-.08,0,0,0-.06,0,0,0-.06,0,0,0,.05,0L5.23.1a.31.31,0,0,0-.13,0H4.94c-.06,0-.21,0-.19.05a.38.38,0,0,1,.11,0s0,0,0,0h0s0,0-.06,0-.1.05-.11,0,0,0,0,0H4.53l0,0h0s0,0,0,0-.15,0-.22,0,0,0,0,0-.06,0-.1,0l0,0s0,0,0,0S4.07.31,4,.34s0,0,0,0,0,0,0,0H4a0,0,0,0,0,0,0h0s-.06,0-.08,0-.09.06-.11,0l-.05,0h0c0-.05.07-.09.15-.13s-.07,0,0,0L3.7.38s.06,0,.08,0,0,0,0,0,0,0,.06,0h0L4,.27s0,.06-.05,0S4,.32,4,.33,4,.28,4,.26a.32.32,0,0,1,.16,0l-.06,0c.05,0,.07,0,.08,0l0,0s0,0,0,0,0,0,.06,0-.07,0,0,0L4,.23l-.22,0s-.14,0-.16.08h0s0,0,0,0h0l0,0s0,0,0,0,0,0-.08,0,.05,0,.09,0h0l-.07,0,.08,0h0l-.09,0s0,0,0,0L3.43.5s0,0,.07,0l-.05,0H3.37a0,0,0,0,1,0,0s-.07,0-.1,0,.06,0,.07,0L3.2.62s.06,0,0,0l-.1,0L3,.7l0,0h0l0,0h0L2.78.83s0,0,0,0A2.92,2.92,0,0,1,3,.65s0,0,0,0a.24.24,0,0,1-.1.07L2.78.8s0,0,0,0L2.6.91l0,0h0l-.1,0h0s0,0,0,0h0l0,0,0,0h0L2.47,1h0L2.58.87h0L2.66.81,2.55.89l-.07,0s-.07,0-.09,0,0,0,0,0h0L2.35,1l0,0h0s0,0,0,0l0,0L2.28,1l-.05,0s0,0,0,0h0l-.13.1v0s0,0,0,0l0,0L2,1.25l-.11.08s0,0,0,0h0l0,0h0s0,0,0,0S2,1.21,2,1.21a0,0,0,0,1,0,0l0,0,.06,0h0A.37.37,0,0,1,2.23,1s0,0,0-.06h0L2.42.9,2.49.84,2.57.79,2.65.74l.08,0L2.86.63h0l.07,0L3,.56l.1,0h0L3,.56A.4.4,0,0,0,3.1.51h0l.08,0,.11,0a.08.08,0,0,1,0-.05s0,0,0,0h0l.06,0h0s0,0,.06,0h0l0,0s0,0,0,0-.1.05-.13,0,0,0,.06,0a.12.12,0,0,0-.09,0,.15.15,0,0,1-.09,0s0,0,0,0L3.1.44,3,.46s-.1.05-.13.09-.09.05-.13,0,0,0,0,0,0,0,0,0a.2.2,0,0,0-.1,0s0,0,0,0A1.08,1.08,0,0,0,2.5.76s0,0,0,0L2.4.8s.06,0,0,0,0,0,0,0,0,0,0,0l-.05,0,0,0s0,0,0,.05L2.23.94l0,0,0,0L2,1.11l-.14.13-.06.06-.06.06,0,0a1.76,1.76,0,0,0-.15.12s0,0,0,0-.08,0-.13.1-.09.11-.08.07-.05,0,0,0,0,.05-.06,0a.48.48,0,0,1,.11-.11.53.53,0,0,0-.17.16l-.05.08-.05.07L1.08,2a.28.28,0,0,0,0,.1s0,0,0,0a.1.1,0,0,1,0,0s0,0,0,0,0,.07,0,.1a0,0,0,0,1,0,0,.68.68,0,0,0-.11.21.38.38,0,0,1-.07.15s0,0,0,0,0,0,0,.07h0v0l0,.06v.05a.06.06,0,0,0,0,0l0,.08,0,0,0,.07s0,0,0,0,0,0,0,0a.13.13,0,0,0,0,0l0,0s0,0,0,0l-.08.16,0-.1L.52,3l0-.06c0-.08.08-.17.11-.25s0,0,0,.07,0,0,0,.06a.13.13,0,0,1,0-.08.54.54,0,0,0,.05-.09l0,0v0l.07-.12s0-.07,0-.08a1.23,1.23,0,0,0,.1-.13.46.46,0,0,1-.1.12s0-.08,0,0l0,.1,0,0,0,.05s0-.05,0,0,0,.09-.05.09,0,0,0,0,0,0,0,0l0,0h0a.47.47,0,0,0,0,.08L.5,2.91.47,3,.45,3l0,.13,0,.06,0,.05s0,.09,0,.09a.28.28,0,0,0,0,.08s0-.06,0-.06,0,0,0,0a.13.13,0,0,0,0,.07l0,0,0,.09v.09h0a.25.25,0,0,1,0,.08.49.49,0,0,0,0-.09.65.65,0,0,0,0,.16s0-.05,0-.06a.8.8,0,0,0,0,.1s0,0,0,0,0,0,0,0,0,0,0,0,0,0,0,0,0,.07,0,.12A.64.64,0,0,1,.14,4c0,.07,0,.08,0,.14s0,0,0,0a.72.72,0,0,1,0,.07s0,.06,0,.09,0,.13,0,.18,0,0,0,0,0,0,0,0,0,0,0,0a.65.65,0,0,1,0,.11,1,1,0,0,0,0,.13.07.07,0,0,0,0,.06s0,0,0,0,0,.09,0,.18,0,.11,0,.17,0,0,0,0,0,.06,0,.09,0,.06,0,.08v.09s0,.07,0,.11,0,.08,0,0a1.22,1.22,0,0,1,0,.18s0,0,0,0,0,0,0,.05,0,0,0,0,0,0,0,0,0,0,0,.08l0,0s0,0,0,0a.8.8,0,0,1,0,.1s0,0,0,0,0,0,0-.06v.15l0,.16,0,.15v.13s0,0,0,0a.15.15,0,0,1,0,.07l0,.06,0,.06,0,.14L.34,7,.38,7s0,0,0,0l0,.09.07.16,0,0s0,0,0,0,0,0,0,0,0,0,0,0a.13.13,0,0,0,0,0s0,0,0,.08l.07.1.06.07h0c0-.07-.07-.08-.11-.14s0,.05,0,.08a.12.12,0,0,0,0,.07l.07.06s0-.05,0-.06l.05.1.05.07.1.09s0,0,0,.05,0,0,0-.05l0,0H1L1.06,8c0-.06,0,0,.05,0A.3.3,0,0,0,1,7.94s0,0,0,0,.07.12.12.19,0,0,0,0,0,0,0,0l0,0,0,0h0A.26.26,0,0,0,1.08,8l0,0,0,0s0,.08,0,.09l.06.07.06.06,0,0h0s0,.06,0,0l0,.05s0,0,0,0l0,0,0,0s0,0,0,0l0,.05a.16.16,0,0,0,0,.05h0l0,0s0,0,0,0l.09.11,0,.08,0,0s0,0,0,0a.35.35,0,0,0,.08.07l.16.2,0,.06L1.78,9l.12.11s0,0,0,0,.09.06.06,0l0,0v0l.05,0,.05,0,0,0h0a0,0,0,0,1,0,0l.05,0-.05-.05v0A.18.18,0,0,1,2,9.12s0,0,0,0,0,0,0,0h0A.18.18,0,0,1,2,9.14H2L2,9.08,1.9,9l.05,0L1.87,9l-.1-.1c-.06-.07-.1-.12-.08-.13l0-.06-.06-.06s0,0,0,0a.19.19,0,0,1-.07-.1s-.06,0-.06-.06,0,0-.05-.06h0l0,0,0,0h0l0,0h0l0,0s0,0,0,0l0,0,0,0s0,0,0,0h0l.08.08s0,0,0,0a2.33,2.33,0,0,1,.17.17s0,0,0,0L2,9l-.13-.1-.1-.12s.06.07.07.1l0,0s0,0,0,0A.17.17,0,0,0,1.93,9s0,0,0,0S2,9,2,9s0,0,0-.05L2,9S2,9,2,9l.09.07.07,0,0,0h0l0,0,.07.07,0,0,0,0,0,0,0,0s0,0,0,0,0,0,0,0h0s0,0,0,0h0s0,0,0,0l.1.07s0,.05.06.06l0,0,.13.07s0,0,0,0,0,0,0,0l-.06,0-.06,0s0,0,0-.06h0l.07.07s0,0,.08,0,0,0,0,.06a.36.36,0,0,1,.12.07l.14.1s0,0-.05,0,0,0,0,0,0,0,0,0,0,0,.07,0L3,9.7s-.08,0,0,0,0,0,.06,0,.12,0,.18.06,0,0,0,0,0,0,0,0h0s0,0,0,0l.07,0a.28.28,0,0,1,.15,0l0,0,0,0,.08,0s-.09,0-.09,0l0,0h0a.33.33,0,0,0,.19.05.36.36,0,0,1,.2.06l0,0,.25.06a.75.75,0,0,0,.26,0,.14.14,0,0,0,.09,0s0,0,0,0l.19,0,.19,0,.07,0h.37a1.64,1.64,0,0,0,.33-.06l.07,0a.54.54,0,0,1,.21-.05h.26l.08,0a.91.91,0,0,1,.27-.1s.1,0,.11-.06a.73.73,0,0,0,.17-.08l.07,0,0,0h.06s0,0,0,0h0L7,9.72l.07-.05.07-.05s.07-.07.08-.11.12,0,.1-.08-.06.05-.09,0a.59.59,0,0,1,.14-.23A.31.31,0,0,0,7.44,9s0,0,.05-.05,0-.11,0-.17v0h0l.07,0-.09,0a.08.08,0,0,0-.08-.1l0,0s0-.06-.05-.07,0-.17-.09-.23,0-.12-.12-.06l0,0s0,0,0,0l-.09-.08,0,0,.09,0s0,0,0,0l-.06,0s0,0,0,0,0,0-.05,0H7l-.15-.07A2.52,2.52,0,0,0,6.52,8s0,0,0,0H6.24c-.06,0-.06,0-.11,0l-.06,0H6a.13.13,0,0,0-.09,0s0,0,0,0,0,0,0,0,0,0,0,0-.05,0-.06,0,0,.08.05.1h0s0,0,0,0-.07-.07-.1-.1S5.6,8,5.56,8.06s0,0,0,.07a0,0,0,0,0,0,0s0,0,.07,0-.09,0-.12,0,0,0,0,0l0,0a.16.16,0,0,0-.07-.11s0,0,0,.09H5.42s0,0-.05,0a.08.08,0,0,1,.06,0s0,0-.05,0a.1.1,0,0,0-.09-.07.26.26,0,0,0-.13,0s-.07,0-.1,0,0,0,0,.06,0,0,0,0-.07,0-.11,0-.07,0,0-.07,0,0,0,0l0,0h0a.11.11,0,0,0,0,.1h0s0,0,0,0,.08,0,.13.06h0s0,0,0,0l-.09,0-.09,0s0,0,0-.05-.06,0-.06-.06,0,0-.08,0,0,0,0,.05S4.57,8,4.57,8h0s0,0,0,0,0,0,0,0,0,0,0,0h0a.1.1,0,0,0-.08,0,0,0,0,0,0,0,0H4.38s-.08,0-.07,0,0,0,0,0,0,0,0,0,0,0,0,0,0,0,0,0l0,0s0,0,0,0,0,0,0,0,0,0,0,0,0,0,0,0,0,0-.09,0,0,0,0,0-.06,0-.12,0l0,0h0l0,0h0l-.06,0,0,0,0,0-.05,0h0v0s0,0,0,0h0s0,0-.08-.06l-.08-.07,0,0,0,0-.08-.08a.3.3,0,0,0-.09-.08s0,0,0,0,0,0,0,0,0,0,0,0,0,0,0,0l0,0s0,0,0,0l0-.05L3,7.08,2.94,7l0,0,0,0s0,0,0,0S2.93,7,3,7l0,0,0,0H3l0,0s0,0,0,0L3,7.12l0,0,0,0a.64.64,0,0,0,.12.16s0,0,0,0l.07.06.05.08s.08.05.1.09.08,0,.07.06h0s0,0,0,.05,0,0,.06,0a.17.17,0,0,0,.07,0s0,0,0,0l.07,0,0,0v0l-.08,0,0,0,0,0s.06.06.09.06h0l0,0,0,0,0,0s0,0,0,0h0l0,0,0,0,0,0s0,0,0,0l-.07-.06,0,0,0,0,0-.06,0,0,0,0h0l0,0h0l0,0s0,0,0-.05,0,0,0,0a.06.06,0,0,0,0,0l-.06-.06,0,0,0,0h0l-.05-.06a.09.09,0,0,1,0-.06s0,0,0-.07l0-.06s0,0,0,0,0,0,0,0,0,0,0,0,0-.08-.06-.1v0l0,0a.31.31,0,0,1,0-.1s0,0,0,0,0,0,0,0a.22.22,0,0,1,0-.06s0,0,0,0V6.2s0,0,0,0l0-.06V6l0-.1s0-.08,0-.11,0,0,0-.05,0-.07,0-.1,0-.06,0-.09a.86.86,0,0,1,0-.09s0,0,0,0,0,0,0,0,0-.09,0-.07,0,0,0-.07,0,0,0,0,0,0,0,0h0a.23.23,0,0,1,0-.1.7.7,0,0,0,0-.1s0,0,0,0,0-.05,0-.08,0,0,0,0,0,0,0,0,0,0,0,0,0,0,0,0h0a.68.68,0,0,1,0-.18V4.6a1,1,0,0,0,0-.11l0-.05,0-.06,0-.06a.19.19,0,0,0,0,0l0-.05,0-.05,0-.11a.08.08,0,0,0,0,0s0,0,0,0l0,0a0,0,0,0,1,0,0s0,0,0,0a.1.1,0,0,1,0-.06.25.25,0,0,1,0-.07l0-.07,0-.07a.14.14,0,0,0,0-.06s0,0,0,.05a.14.14,0,0,1,0-.08l0,0,0-.05h0a.2.2,0,0,1,.08-.09A.23.23,0,0,1,3,3.28l0,0,0,0s0,0,0,0h0s0,0,0,0,0,0,0-.05l.06,0,0,0,0,0s0-.06.07-.08h0s0,0,0,0,0,0,.06,0,0,0,0,0,0,0,0,0l.06,0s0,0,0,0h0v0l-.08,0s0,0,0,0l-.11.1s0,0,0,0l0,0-.06,0L3.15,3s0,.06-.06.06,0,0,0,0,0,0,0,0,0,0,0,0,0,0-.06,0,0-.06,0-.05-.08.14-.12.14,0,0,0,0,0,0,0,0l0,0s0,0,0,0l0,.05a.08.08,0,0,1,0-.06l.07-.07s0,0,0,0a.23.23,0,0,1,.06-.07A.16.16,0,0,0,2.94,3l-.06,0L3,3l.13-.12s0,0,0,0l0-.06h0l0,0s0,0,0,0l.06-.06.07-.06.07,0s0,0,0,0,.06,0,0,0h0s0,0,.06-.06,0,0,0,0,0,0,0,0,0,0,0,0l.06,0s0,0,0,0l0,0s0,0,0,0,0,0,0,0l0,0,0,0,0,0h0s0,0,0,0,0,0,0,0,.06,0,.05,0,0,0,0,0,0,0,0,0h0s0,0,0,0h0s0,0,.06,0,0,0,.08,0,0,0,0,0h0s0,0,0,0H4s0,0,0,0a.31.31,0,0,1,.17-.07s0,0,.07,0,0,0,0,0,0,0,0,0l-.07,0H4L4,2.22s.05,0,0,0,0,0,0,0l-.17.08s0,0,0,0-.06,0-.1,0l0,0h0s0,0,0,0l-.11.05-.09,0s.05,0,.09-.05,0,0,0,0l-.13.07s0,0,0,0,0,0,0,0,0,0,0,0l0,0s0,0,0,0,0,0,0,0,0,0,0,0,0,0,0,0,0,0,0,0,0,0,0,0,.07-.05.08,0,0,0,0,0,0,0,0,0l0,0s0,0,0,0l0,0h0s0,0,0,0,0,0,0,0h0s0,0,0,0h0l0,0,0,0s0,0,0,0l0,0,.09,0s0,0,0,0,0,0,0,0,0,0,0,0,0,0,0,0h0l0,0s0,0,0,0,0,0,0,0,0,0,.05,0,0,0,0,0,0,0,0,0h0s0,0,0,0,0,0,0,0l0,0s0,0,0,0l0,0,0,0H4L4,2h0s0,0,0,0,0,0,0,0l0,0s0,0,0,0h0l.09,0s0,0,.07,0,0,0,0,0h0s0,0,0,0,0,0,0,0h0s0,0,0,0l.1,0h.07l.08,0h0l.08,0H4.65l0,0h0s0,0,0,0h0a0,0,0,0,0,0,0s.06,0,.07,0h.37s0,0,0,0h.19s0,0,0,0h0s0,0,0,0h.14s0,0,0,0h.06s0,0,0,0h0l.07,0h0a.18.18,0,0,0-.1,0s0,0,0,0H5.14s0,0,0,0-.06,0,0,0-.06,0-.06,0H4.93s0,0,0,0h0s0,0,0,0,0,0,.06,0a.1.1,0,0,1-.07,0H5s0,0,0,0H5a3.59,3.59,0,0,1,.53,0A3.11,3.11,0,0,1,6,1.9l.09,0h.09l.1,0s0,0,0,0,.07,0,.09,0-.08,0-.09,0A.47.47,0,0,1,6.45,2h.07l.06,0s0,0,.06,0,0,0,0,0l.09,0h0l0,0s0,0,0,0a.31.31,0,0,1-.11-.05s0,0,.06,0,0,0,0,0l-.05,0h0s0,0,0,0,0,0,0,0,0,0-.06,0,0,0,0,0,0,0-.06,0h0s0,0,0,0l-.07,0-.06,0h0s0,0,0,0,0,0,0,0,0,0,0,0,0,0,0,0l-.05,0h0s0,0,0,0h.1l-.07,0H6.13s0,0,0,0,0,0,0,0H6l0,0H6a.09.09,0,0,1-.06,0H5.87l-.1,0h.11l.07,0,.07,0h.07s0,0,0,0a.34.34,0,0,1,.15,0h.05l.07,0h0l0,0s0,0,.06,0,0,0,0,0h0s0,0,0,0h0l0,0s0,0,.06,0,0,0,0,0l.06,0,0,0L6.63,2l.07,0h0l.06,0,0,0,0,0s.09,0,.09,0l.1,0H7l.09.06.09.06,0,0,0,0,0,0,0,0h0a.28.28,0,0,0,.08.08s.06,0,0,.06,0,0,0,0l0,0,0,0,.06.07.1.1h0l0,0,0,0,0,.07h0l0,0,0-.06a.11.11,0,0,1,0-.05s0,0,0,.06a.29.29,0,0,0-.06-.09l-.08-.09h0a.27.27,0,0,0-.07-.07l-.08-.1-.1-.09-.1-.08-.08-.09-.08-.05,0,0,0,0,0,0s.08.05.1,0l-.1-.07-.05,0h0l0,0L7,2.16l-.05,0,0,0h0s-.07,0-.09-.05h0s0,0-.06,0h0L6.7,2l-.11-.05h0l0,0,0,0-.09,0-.1,0-.05,0H6.2l-.07,0L6,1.74l-.11,0H5.63s.09,0,.11,0h-.1s0,0,0,0H5.45s.07,0,.08,0H5.4s0,0,0,0l-.07,0h0s0,0,0,0h-.3l-.06,0h-.1l0,0H4.67s0,0,0,0a.68.68,0,0,0-.14,0h0s0,0,0,0h0l-.06,0h0s0,0,0,0h0s0,0,0,0,0,0,0,0l.1,0h.1s0,0,0,0,0,0,0,0,0,0,0,0,0,0,0,0h.08s0,0,0,0H5s0,0,0,0,.09,0,.1,0h.22l.1,0h.11l.13,0h0s0,0,0,0h.05l.07,0h0s.07,0,.09,0h0a1,1,0,0,1,.24.07s0,0,0,0,.07,0,.07,0-.08,0-.05,0,.07,0,.12,0,0,0,.06,0l.09,0a.24.24,0,0,0,.1,0,.29.29,0,0,1-.12-.08H6.37s0,0,0,0l-.17-.06h0l0,0a.22.22,0,0,1,.16,0s.07,0,.08,0,0,0,0,0,.08,0,0,0,0,0,0,0h.08s0,0,0,0h0s.09.06.11.06h0l0,0,0,0S7,2,7,2H7l0,0s.06,0,0,0a.12.12,0,0,1,.08,0s0,0-.05,0l.05,0,.05,0s0,0,0,0h0l0,0,.05,0s0,0,0,0,0,0,0,0,.06,0,.08,0,0,0-.05,0,0,0,0,0l.09.07s0,0,0,0,0,0,0,0,0,0,0,0l.08.06,0,0,0,0s0,0,0,0l.12.09.11.1h0l0,0,0,0,0,0,.07.1.09.12.08.12,0,0v0l0,0,.06.09a.2.2,0,0,1,0,.09l0,.06,0,.06h0l0,.09,0,.07,0,.08,0,.1s0-.1,0-.1l0-.05v0l0-.09v0a.14.14,0,0,0,0,.07l0-.1,0-.09s0,0,0,.06l0,0v0l0-.08,0-.08s0,0,0,0a.52.52,0,0,1,0,.08s0,0,0,0l0,.06s0,0,0,0l0,0,0,0a.1.1,0,0,1,0,.06s0,0,0,0l0,0h0l0,0v0l0,0,0,.08v.07s0-.1,0-.14l0-.09,0-.09,0-.08,0-.06,0-.08,0-.07a.35.35,0,0,1-.06-.12s0,.05,0,.08,0,0,0,0c.1.2.21.41.3.64a2.72,2.72,0,0,1,.19.73s0,.14,0,.18,0,.08,0,.09,0-.09,0-.1,0,0,0,0a.67.67,0,0,1,0,.08A.53.53,0,0,1,9,4.9.26.26,0,0,0,9,5a1.38,1.38,0,0,0,0-.2s0,0,0,0,0,0,0-.06,0,0,0,0,0,.11,0,.14,0,0,0-.07,0,0,0-.06a.66.66,0,0,0,0-.07s0-.1,0-.15l0-.15V4.2s0,0,0,0l0-.07L9,4l0-.08a.39.39,0,0,1,0-.07l0-.08V3.7s0,0,0-.05,0,0,0,0l0,.06s0,0,0,0l0,.07,0,.06s0,0,0,0l0-.08s0-.06,0-.06,0,0,0,0V3.52l0-.06-.05-.12s0,0,0,0,0,0,0,0l-.05-.09-.06-.1a2.76,2.76,0,0,0-.41-.65A5.59,5.59,0,0,0,7.76,2l-.09-.06,0,0,0,0h0l-.06,0-.1-.07-.1,0-.09-.06-.18-.09h0l0,0c.07,0,.12.07.14.06l0,0h0c.05,0,0,0,0,0s0,0,0,0h0l.05,0,.05,0,.08,0a.87.87,0,0,0-.12-.08h0v0s-.09,0-.1-.08.09.06.16.11,0,0,0,0l.12.08s.06.07.07.05-.07,0-.07-.07-.12-.06-.16-.1l.08,0s0,0-.07,0h0l0,0,0,0,0,0,.1.05.09,0s0,0,0,0h0l-.09-.06a.2.2,0,0,1-.07-.05l.06,0,0,0,.07,0,.08.06,0,0,0,0-.08,0-.08,0-.08,0s.07,0,0,0l-.1,0L7,1.41,7,1.38l-.05,0-.09,0L7,1.37l.13.07s0,0,0,0l.15.09.18.1s0,0,0,0,.15.1.2.13h0l0,0,0,0,.08.07s-.1,0-.09,0,.08,0,.11,0L7.94,2,8,2,8,2H8a2,2,0,0,1,.37.39v0h0l0,.07.05.07.06.08h0s0,0,0,0l0-.05s0,0,0,0,0,0,.06.06h0s0,0,0,0l0,0,.08.13v0s0,0,0,0l0,0h0l0,.06s0,0,0,0l.06.1a3.23,3.23,0,0,1,.27.6s0,0,0,0l0,.14,0,.06,0,.06,0,.12,0,.13s0,0,0,.05,0,0,0,0,0,0,0,.06v.07s0,.1,0,.14h0a.59.59,0,0,1,0,.2h0c0,.05,0,.1,0,.1a.15.15,0,0,1,0,.08s0,0,0,0a6.25,6.25,0,0,1,0,.66,4.7,4.7,0,0,1-.13.68,3.55,3.55,0,0,0,.16-1.05s0-.07,0-.05,0-.05,0-.08,0-.05,0-.08,0-.06,0-.08V4.77a1.81,1.81,0,0,0,0-.32s0,0,0,0,0,0,0,0,0-.09,0-.15a.57.57,0,0,1,0-.16s0,0,0,0,0,0,0,0a.09.09,0,0,1,0,0,.5.5,0,0,1,0-.13s0-.07,0-.12,0,0,0,0A3.22,3.22,0,0,0,9,3.4l0,0,0,0H9v.06a.06.06,0,0,0,0,0h0l0,.07s0,0,0,0l0,0s0,0,0,0,0,0,0-.07,0,0,0-.07S9,3.36,9,3.35s0,0,0,0a.45.45,0,0,1,0-.09h0L8.83,3V3s0,0,0,0,0,0,0,0l0-.07,0-.07s0,0,0,0l0,0s0,0,0,0,0,0,0-.07,0,0,0-.08h0s0,0,0,0h0l0,0s0,0,0,0l0,.05a.22.22,0,0,1,0,.06s0,0,0,0l0-.06a.33.33,0,0,1-.07-.11l0,.05h0l0,0h0l0,0,.09.13,0,0,0,0,0,.07,0,.07,0,.08s0,0,0,0,0,.05,0,.06,0,0,0,0l0,.08,0,.07s0-.06,0,0,.17.37.22.53a4,4,0,0,1,.17.72h0c0,.09,0,.18,0,.25a.37.37,0,0,1,0,0v0s0,.06,0,.06,0-.07,0-.07a2.08,2.08,0,0,1,0,.28s0,.05,0,.08,0,.06,0,.09a1.38,1.38,0,0,0,0,.16c0-.06,0-.2,0-.21s0,.12,0,.19,0,0,0,0a.2.2,0,0,1,0,0,1.62,1.62,0,0,1,0,.29.57.57,0,0,0,0,.09s0,0,0,0,0-.06,0-.06,0,.21,0,.3l0,.14s0,.09,0,.14,0,.11,0,.14,0,0,0,0l0,.09-.08.24s0-.1.07-.16,0,0,0,0,0,.07,0,.06l0-.07,0-.06a.45.45,0,0,1-.07.2v0l0,0,0,.11s0,0,0,0V7l0,0c0,.05,0,0,0,.09s0,0,0-.06a.15.15,0,0,1,0,.12s0,0,0,0A.59.59,0,0,0,9,7.32s0,0,0,.07l-.05.08a.16.16,0,0,0,0,.07s0-.08.07-.09,0,.06,0,.07S9,7.41,9,7.41l0,.06s0,0,0,0,0,0,0,0,0,0,0,0l.07-.11,0,.07,0,.09-.1.15a.06.06,0,0,1,0,0l0-.05h0a.12.12,0,0,1,0,0c0,.08,0,.05-.08.11s0,0,0,0l0-.06,0-.07,0-.06,0-.06a.37.37,0,0,0,.08-.11l0,0,0,0,0,0s0,0,0-.07l0,0,0,0A.18.18,0,0,1,9.35,7s0,0,0,0l0,.09,0,.09a1.63,1.63,0,0,0,.11-.24l0,0s0,0,0-.06,0,0,0,0a.21.21,0,0,1,0,0l.06-.12,0-.06,0-.06,0-.09,0-.05,0-.05c0-.07,0-.12.06-.13l0-.14a.9.9,0,0,1,0-.13s0,0,0,0a.63.63,0,0,0,0-.16V5.75a.76.76,0,0,1,0-.09s0,.11,0,.08,0-.08,0-.12l0-.11c0-.07,0-.13,0-.2s0,.05,0,0a1.14,1.14,0,0,0,0-.16s0,0,0,0a.78.78,0,0,1,0-.12s0-.08,0-.13,0,0,0,0V4.87s0,0,0,0,0-.1,0-.16V4.62a.56.56,0,0,0,0-.07s0,0,0,0h0a1.34,1.34,0,0,0,0-.16l0-.18,0-.09,0-.08a.66.66,0,0,1,0-.1s0,0,0-.09,0,0,0,0A5,5,0,0,0,9.41,3V3l-.08-.17L9.26,2.7l0,0,0,0-.06-.1,0,0,0,0,0-.06s0,.06,0,0A1.49,1.49,0,0,0,8.84,2.07ZM7.35.72,7.25.67ZM4.18.17h0ZM4.39.11h0Zm.74,0h0ZM2.55.74l.08,0s0,0-.07.06ZM2,1.17H2ZM1.3,8.42s0,0,.05,0S1.33,8.44,1.3,8.42Zm.58.66h0Zm0,0h0l0,0Zm0,0s0,0,.07,0,0,0,0,0H2l0,0H2S2,9.16,2,9.15ZM3.1,7.25s0,0,0-.05,0,0,0,0,0,0,0,0S3.1,7.23,3.1,7.25Zm.09.11h0v0l0,0h0l0,0Zm.13.09,0,0h0Zm.8-5.28h0s0,0,0,0l0,0S4.15,2.16,4.12,2.17Zm-.19.06,0,0,0,0S3.93,2.23,3.93,2.22Zm-.15.07s0,0,.07,0,0,0,0,0,0,0,0,0,0,0,0,0h0s0,0,0,0h0a0,0,0,0,0,0,0s0,0,0,0h0Zm0,0h0l0,0s0,0,0,0h0Zm1.46-.54h0ZM6.48,2h0s0,0,0,0Zm-.15-.07h0s0,0,0,0,0,0,.07,0h-.1ZM7.85,3s0,0,0,0S7.86,3,7.85,3Zm-1-.85,0,0h0l-.07,0Zm-.28-.18h0s0,0,0,0Zm-.37-.14-.06,0S6.2,1.79,6.18,1.79ZM6,1.84l0,0,.09,0Zm0,0H5.94S6,1.8,6,1.81Zm-.09,0h0Zm0,0h0S5.93,1.81,5.94,1.82Zm-.14,0,.09,0S5.79,1.78,5.8,1.78Zm-.05,0s0,0,.06,0Zm0,0h.07s0,0,0,0H5.72Zm-.44-.1h0ZM8.35,3.37v0l0,0,0,0ZM7.28,1.66h0Zm1.35,1s0,0,0,0S8.64,2.71,8.63,2.7ZM9,7.51H9s0,.06,0,.07,0,0,0,0l0-.06Zm.12-.41h0a.2.2,0,0,1,0-.07S9.12,7.07,9.11,7.1Zm.12-.54s0-.1,0-.09Zm.59-1.17s0-.09,0-.08A.65.65,0,0,0,9.82,5.38Zm0-.3s0-.06,0,0,0-.11,0-.1A.79.79,0,0,0,9.85,5.08ZM7.24.74h0Zm.22.77,0,0h0l0,0h0l.06,0s0,0,0,0A0,0,0,0,1,7.46,1.5ZM7,1.24s0,0,0,0H7S7,1.24,7,1.24Zm.06.05s0,0,0,0Zm0,0s0,0,0,0S7.06,1.27,7.06,1.28ZM5.77.91H5.69a.13.13,0,0,0,.1,0h0ZM5.53.9a.07.07,0,0,1-.06,0h.06A0,0,0,0,1,5.53.9Zm-.32.67H5.15s0,0,0,0H5.2Zm-1.77.67,0,0h0l0,0Zm-.21.16h0Zm-.31.26h0l0,0h0Zm.64,5.1h0ZM2.15,9h0S2.14,9,2.15,9ZM.65,7.46v0ZM5.2.21h0Zm.24.7h0ZM5.63,1h0S5.64,1,5.63,1ZM3.35,2.27h0l0,0h0Zm0,0h0s0,0,0,0l.06,0h0Zm-.16.13h0Zm-.29.24h0Zm-.24.1,0,0h0l0,0ZM2.3,9.12l0,0s0,0,0,0l0,0h0s0,0,0,0l0,0ZM.42,3.64a.37.37,0,0,0,0-.08s0,.05,0,.1S.43,3.64.42,3.64Zm.18-.57h0s0,0,0,0Zm.34-.55,0,0v0H1S.94,2.54.94,2.52ZM1,2.46a.11.11,0,0,1,.06-.07s0,0,0,0l0,.06Zm.16-.29s0,0,0,0a.43.43,0,0,1,0,.09S1.11,2.23,1.15,2.18Zm.05,0,0,.05h0Zm.73-.79H2l0,0h0Zm1.41.88h0l0,0h0l0,0Zm-1.91-.5,0-.06h0s-.06.09-.08.09ZM5.17.9h0ZM3.24,2.29h0Zm0,0h0Zm0,0h0l0,0,0,0h0l0,0h0Zm-.1,0h0Zm0,0h0s0,0,0,0h0ZM1.84,1.49h0l0,0S1.84,1.48,1.84,1.49Zm-.09.06-.08.09h0s0,0,0,0l0,0ZM5.24.91h0Zm0,0h0ZM6.86.53h0s0,0,0,0ZM3.77.43h0l0,0ZM2,1.35l0,0H2l0,0H2l0,0Zm-.2.07h0l0,0Zm-.11.09,0,0h0l0,0h0l0,0h0s0,0,0,0,0,0,0,0l0,0h0l0,0-.05,0h0l0,0,.09-.1.07-.08A0,0,0,0,1,1.69,1.51ZM1.26,2h0l0,0Zm0,.17h0Zm0-.06,0,0s0,0,0,0,0,0,0,0A.07.07,0,0,1,1.2,2.08Zm-.12.27s0-.05,0-.07h0A.14.14,0,0,0,1.08,2.35Zm-.37.7h0Zm-.09,0h0v0Zm0,0h0Zm0,0v0h0s0,0,0,0ZM2.18,9.07h0Zm.5-6.32h0Zm.61-.41h0Zm.79-.45h0s0,0,0,0l-.06,0Zm1.36-1h0ZM6.81.49h0s0,0,0,0ZM5.69.25h0ZM5.54.2a.39.39,0,0,1,.15,0A.26.26,0,0,1,5.54.2Zm-.08,0h0ZM4,.37H4ZM3.87.4h0l0,0Zm-1.59.72h0Zm-.1,0h0l0,0Zm-.08.1,0,0h0Zm-.37.23,0,0a.08.08,0,0,1,0,0A.09.09,0,0,1,1.73,1.47ZM.63,3h0Zm0,.11s0,0,0,0v0h0l0,0A.76.76,0,0,1,.61,3.14ZM.63,7h0ZM1.89,8.79h0l0,0h0S1.9,8.78,1.89,8.79Zm.1.07s0,0,0,0H2S2,8.85,2,8.86Zm0,0,0,0H2Zm.23.2h0ZM3.89,7.86Zm-.27-.07h0ZM2.69,2.74h0Zm.17,0,0,0h0v0Zm.3-.23s0,0,0,0h0Zm0,0,0,0h0l0,0Zm0,0h0l0,0,0,0A.16.16,0,0,1,3.16,2.43Zm.13-.08.06,0,0,0,0,0ZM4,1.93H4s0,0,0,0H4Zm0,0H4s0,0,.08,0L4,1.92l0,0Zm.2-.09h0Zm.19,0s0,0,0,0h0Zm0,0h0Zm0,0h0Zm.17,0h0Zm-.24,0s0,0-.06,0Zm.55-.16h0Zm.41,0h0Zm.3,0h0Zm.07,0,0,0H5.68S5.72,1.62,5.71,1.61ZM5.64,1H5.41l-.09,0H5.4a.12.12,0,0,0,.08,0h.16ZM6.49.39h0Zm-.06,0h0s.09,0,.12,0h0l.06,0,.06,0s0,0,0,0l0,0-.08,0L6.45.4l0,0-.07,0-.06,0C6.42.41,6.41.39,6.44.41Zm-.1,0-.09,0h0ZM6.2.34h0ZM5.88.25h.06c-.16,0,.05,0,.08,0H5.88Zm-.07,0s-.07,0-.1,0a0,0,0,0,0,0,0S5.73.23,5.81.23Zm-.27,0s0,0,0,0a1.21,1.21,0,0,0,.23,0s-.09,0-.15,0,0,0-.05,0H5.44A.2.2,0,0,1,5.54.18ZM5.38.2H5.26S5.34.21,5.38.2Zm-.19,0h0Zm-.06,0A.2.2,0,0,0,5,.21v0c.06,0,0,0,.07,0S5.16.18,5.13.21Zm-.42,0h0ZM3.85.36h0a0,0,0,0,1,0,0H3.83S3.86.37,3.85.36ZM2.72.84h0l-.07,0ZM2.3,1h0s0,0,0,0h0Zm-.15.11h0Zm-.06,0h0Zm-.21.15h0Zm0,0a.22.22,0,0,1-.12.1h0l0,0s0,0,0,0l0,0h0l0,0Zm-.58.46s0,0,0,0,0,0,0,.05A0,0,0,0,0,1.27,1.8Zm-.5.8h0s0,0,0,0Zm-.08.22v0s0,.05,0,.06l0-.06,0,0a.42.42,0,0,0,.06-.11s.06,0,0,0,0,.06,0,0,0-.06.06-.11,0,0,.06,0a.24.24,0,0,0,0,.08h0l0,0a.22.22,0,0,0,0,.07h0s0,0,0,0h0s0,0,0,0h0s0,0,0-.08l0,.06s-.06,0,0,0,0,0,0,0,0,0,0,.06,0,0,0,0a.16.16,0,0,0,0,.09l0,0h0V3l0,0h0s0,0,0,.05,0,0,0,0l0,0h0A.16.16,0,0,1,.66,3s0,0,0,0A.66.66,0,0,1,.6,3,.61.61,0,0,1,.68,2.82Zm-.15.1a.21.21,0,0,1,0-.07A.15.15,0,0,1,.53,2.92Zm0,0s0,.06,0,0Zm-.09.25A1.52,1.52,0,0,0,.5,3s0,0,0,0L.51,3,.48,3l0,.11S.44,3.12.43,3.12Zm.07.3a.21.21,0,0,0,0-.08s0,0,0,0,0,0,0,0,0,0,0-.05a1.13,1.13,0,0,1,0,.14l0,.07v.08l0,0ZM0,5.6s0,0,0-.05,0,.06,0,.11S0,5.59,0,5.6Zm.09.46s0,0,0,0V6a.31.31,0,0,1,0-.05V6a.46.46,0,0,0,0,.1s0,0,0,.08,0,0,0,0A1.35,1.35,0,0,1,.13,6.06ZM1.36,8.43,1.3,8.36l0,0,0,0h0Zm.08,0a.15.15,0,0,1-.05,0h0l.06,0ZM2,8.9s0,0,0-.06,0,0,0,0h0s0,0,0,0H2S2,8.9,2,8.9ZM2,9l.06,0s0,0,0,0S2.06,9,2,9ZM2.09,9h0l.06.06Zm0,0,0,0,0,0Zm.05.07h0Zm0,0h0ZM3,9.73s0,0,.09,0h0s0,0,0,0S3,9.68,3,9.73Zm.38.14s.08,0,.08.06h0s0,0-.05,0,0,0,0,0,0,0,0,0,0,0,0,0,.05,0,.1,0,0,0,.06,0Zm.57-2s0,0,0,0S4,7.91,4,7.89Zm-.08,0h0Zm-.11,0h0Zm0,0h0l0,0S3.74,7.82,3.75,7.83Zm0,0-.05,0H3.61v0S3.7,7.8,3.73,7.83Zm-.15-.05h0v0h0l0,0Zm0,0h0ZM3.18,2.47h0Zm.25.11h0S3.44,2.56,3.43,2.58Zm.08-.09s0,0,0,0-.05,0-.06,0S3.48,2.51,3.51,2.49Zm.16-.29s0,0,0,0,0,0,0,0l-.06,0s-.1.09-.1.06,0,0,0,0-.07,0-.06,0h0l0,0s0,0,0,0,0,0-.05,0,0,0,0,0,0,0,0,0,0,0,0,0,0,0,0,0l-.06,0-.06,0s0,0,0,0l-.06,0-.06,0s0,0,0,0,.06,0,.06,0,0,0,0,0l0,0,0,0h0s.05,0,0,0l0,0,0,0h0l.05,0s-.05,0-.06.07a.4.4,0,0,0,.09-.09h0l0,0,.06,0s0,0,0,0,0,0,0,0l0,0,0,0h0l0,0,0,0h0l0,0h0l0,0s0,0,0,0h0s0,0,0,0,.05,0,.07,0,0,0,0,0,0,0,0,0l0,0s0,0,0,0h0l.06,0h0s0,0,0,0h0l.05,0H4L3.95,2H3.88l-.08,0a.53.53,0,0,1-.16.09h0l-.06,0s0,0,0,0,0,0,0,0h0s0,0,0,0,0,0,0,0,0,0,0,0h0l-.06,0s0,0,0,0,0,0,0,0,.06,0,.07,0,.09,0,0,0h0s0,0,0,0l0,0S3.67,2.2,3.66,2.2Zm0,0,.06,0s0,0,0,0l-.05,0S3.69,2.17,3.67,2.16Zm0,0s0,0,0,0l0,0,.06,0S3.74,2.15,3.71,2.17Zm.18-.06-.08,0s0,0,0,0S3.87,2.11,3.9,2.11Zm-.08,0,0,0,0,0h0s0,0,0,0h0s0,0,0,0,0,0,0,0h0ZM3.94,2H3.87l0,0h0s0,0,0,0S3.95,2,3.94,2ZM4,2S4,2,4,2,4,2,4,2Zm.34-.14h0Zm0,0h0Zm.3-.07.06,0Zm-.22,0H4.36l0,0,0,0s-.05,0,0,0Zm0,0s0,0,.06,0S4.45,1.72,4.43,1.73Zm.25-.08h0l0,0S4.66,1.66,4.67,1.66Zm0,0h0s0,0,0,0h0Zm.19-.05h0Zm0,0H5S5,1.6,5,1.6Zm.17,0h0s0,0,.06,0S5.16,1.59,5.13,1.6Zm.16,0h0Zm.27,0h.05s0,0,0,0Zm0,0H5.7S5.6,1.63,5.59,1.61Zm.12,0h.08S5.72,1.63,5.7,1.63Zm.29,0H6s0,0,.07,0Zm.15,0h0Zm0,0s.08,0,.11,0Zm.19.06h0l0,0Zm.46-.54h0Zm-.16,0h0l0,0S6.63,1.22,6.61,1.21Zm-.24-.13h0ZM7,1.32c-.07,0-.14-.07-.19-.07h0s0,0-.07,0,0,0,0,0h0l0,0H6.68a.38.38,0,0,0-.12-.05l-.13,0H6.35l.08,0-.09,0h0s-.07,0-.08,0h0L6.07,1h0s0,0,0,0H6A.09.09,0,0,1,6,1l-.1,0h0c-.06,0-.12,0-.14,0H5.73s0,0-.06,0H5.54s0,0,0,0h.24s0,0,0,0l.15,0h.15s0,0,0,0h0a.11.11,0,0,0,.08,0h0s-.05,0-.05,0h.06l.09,0,.06,0s0,0,0,0l.06,0a.35.35,0,0,1,.14.05s0,0,0,0,0,0,0,0,0,0,.08,0a0,0,0,0,0,0,0s0,0,0,0l0,0h0l0,0h0s0,0,0,0,0,0,0,0l0,0h0a.07.07,0,0,1,.06,0l-.06,0h0s0,0,0,0l0,0,0,0-.07,0,0,0h0s0,0,0,0L7,1.24l-.06,0s0,0,0,0,0,0,0,0l.06,0s0,0,0,0H7L7,1.29Zm.07,0h0l0,0Zm1,.72L8.07,2,8,2H8a.11.11,0,0,0-.08-.06h0l-.05,0s0,0,.05,0l0,0a.72.72,0,0,1-.17-.12l-.1-.08-.1-.07-.15-.09-.13-.07s0,0,0,0l-.05,0-.06,0s0,0,0,0,0,0,0,0h0v0a0,0,0,0,0,0,0h0s0,0,0,0h.06l-.06,0h0l0,0-.05,0h0l0,0h0l0,0,0,0,0,0,.09,0,.09.05.07,0h0l-.09,0,.1.07,0,0h0s.1.07.12.07v0l.08.06h0c.07.05.06,0,0,0h0s0,0,.06,0l0,0s0,0,0,0h0l.06,0s0,0,.06,0l.08.07.08.07L8,2H8l.11.09.05.05,0,.05-.05,0Zm.21.22,0,0,0,0-.06-.06.05,0,.06.06.1.12A.43.43,0,0,1,8.34,2.31Zm0-.81a.44.44,0,0,1,.12.09A.68.68,0,0,1,8.29,1.5Z" style="fill: #2c2c2c;fill-rule: evenodd"/>
        <path d="M.36,3.28h0S.36,3.28.36,3.28Z" style="fill: #2c2c2c;fill-rule: evenodd"/>
        <path d="M6.45.4h0Z" style="fill: #2c2c2c;fill-rule: evenodd"/>
        <path d="M7.13,2.22h0Z" style="fill: #2c2c2c;fill-rule: evenodd"/>
        <path d="M.05,5.74a0,0,0,0,0,0,0Z" style="fill: #2c2c2c;fill-rule: evenodd"/>
        <polygon points="7.13 1.32 7.13 1.32 7.13 1.32 7.13 1.32" style="fill: #2c2c2c;fill-rule: evenodd"/>
        <path d="M8.87,7.5s0,.07-.05.08Z" style="fill: #2c2c2c;fill-rule: evenodd"/>
        <path d="M8.13,6.84l0,.06,0,0,0-.06S8.14,6.83,8.13,6.84Z" style="fill: #2c2c2c;fill-rule: evenodd"/>
        <path d="M9.12,6.67a.16.16,0,0,0,0,.06.23.23,0,0,1,0-.09S9.12,6.68,9.12,6.67Z" style="fill: #2c2c2c;fill-rule: evenodd"/>
        <path d="M9.06,6.26s0,0,0-.06,0,0,0,0,0,0,0,0S9.06,6.25,9.06,6.26Z" style="fill: #2c2c2c;fill-rule: evenodd"/>
        <path d="M9,5.1v0H9s0,.08,0,.06v0h0a.28.28,0,0,1,0-.08h0a.14.14,0,0,0,0,0s0,0,0,0S9,5,9,5.1Z" style="fill: #2c2c2c;fill-rule: evenodd"/>
        <path d="M9,5.09s0,0,0,0a0,0,0,0,1,0,0V5A.08.08,0,0,0,9,5v.09Z" style="fill: #2c2c2c;fill-rule: evenodd"/>
        <path d="M8.37,5.11h0a.11.11,0,0,1,0,0,.06.06,0,0,0,0,0s0,0,0,0,0,0,0,0a.19.19,0,0,1,0-.07.3.3,0,0,0,0-.07h0V4.82s0,0,0-.05v0s0,.06,0,0,0,0,0,0,0,0,0,0,0,.05,0,.08,0,0,0,0,0,.05,0,0,0,.06,0,0S8.37,5,8.37,5.11Z" style="fill: #2c2c2c;fill-rule: evenodd"/>
        <path d="M8.76,5.09V5a.11.11,0,0,0,0,0,.52.52,0,0,1,0,.06S8.75,5.09,8.76,5.09Z" style="fill: #2c2c2c;fill-rule: evenodd"/>
        <path d="M9,4.91s0-.05,0,0S9,4.94,9,5A.14.14,0,0,1,9,4.91Z" style="fill: #2c2c2c;fill-rule: evenodd"/>
        <path d="M9,4.13A.39.39,0,0,0,9,4Z" style="fill: #2c2c2c;fill-rule: evenodd"/>
        <path d="M8.48,3.87l0-.07A.19.19,0,0,0,8.48,3.87Z" style="fill: #2c2c2c;fill-rule: evenodd"/>
        <path d="M8.26,3.63s0,0,0,0S8.26,3.6,8.26,3.63Z" style="fill: #2c2c2c;fill-rule: evenodd"/>
        <path d="M8.08,3.66s0-.07,0-.06l0,0s0,0,0,0,0,0,0,0S8.06,3.65,8.08,3.66Z" style="fill: #2c2c2c;fill-rule: evenodd"/>
        <path d="M8.14,3.22s0,0,0,0h0s0,0,0,0,0,0,0,0,0,0,0,0S8.14,3.21,8.14,3.22Z" style="fill: #2c2c2c;fill-rule: evenodd"/>
        <path d="M8,3S8,3,8,3s.11.13.1.15h0l0,0,0,0A.2.2,0,0,0,8,3V3Z" style="fill: #2c2c2c;fill-rule: evenodd"/>
        <path d="M7.37,2.63l0,0,0,0,0,0h0s0,0,0,0,0,0,0,0l0,0,0,0h0s0,0,0,0,0,0,0,0,0,0,0,.06,0,0,0,0,0,0,0,0,0,0,0,0,0,0,0,0l0,0,0,.05s0,0,0,0h0s0,0,0,0,0,0,0,0l0,0,0,0s0,0,0,0,0,0,0,0h0s0,0,.05.05a.08.08,0,0,1,0,.06l0,0s0,0,0,0a.42.42,0,0,1,.07.1.05.05,0,0,1,0,0l0-.06s0,0,0-.06l0,0h0l0,0,0,0-.07-.09-.08-.09,0,0,0,0,0,0a.11.11,0,0,0,0,0s0,0,0,0Zm.2.19s0,0,0,0l0,0S7.56,2.84,7.57,2.82Z" style="fill: #2c2c2c;fill-rule: evenodd"/>
        <path d="M9,2.14s0,0,0,0a.35.35,0,0,0-.07-.08S9,2.16,9,2.14Z" style="fill: #2c2c2c;fill-rule: evenodd"/>
        <path d="M7.85,2.77s0,0,0,.07h0a.06.06,0,0,1,0,0l0,0S7.85,2.78,7.85,2.77Z" style="fill: #2c2c2c;fill-rule: evenodd"/>
        <path d="M7.8,2.74l0,0s0,0,0,0,0,0,0,0S7.79,2.73,7.8,2.74Z" style="fill: #2c2c2c;fill-rule: evenodd"/>
        <path d="M8.74,1.78l0,0,0,0,.1.1s0,0,0,0v0S8.77,1.81,8.74,1.78Z" style="fill: #2c2c2c;fill-rule: evenodd"/>
        <path d="M7.6,2.52l0,0,0,0h0l0,0h0s0,0,0,0a.19.19,0,0,0,.07.06h0s0,0,0,0,0,0,0,0l0,0S7.62,2.55,7.6,2.52Z" style="fill: #2c2c2c;fill-rule: evenodd"/>
        <path d="M8.42,1.45s0,0,0,0,0,0,.06,0,0,0,0,0l0,0Z" style="fill: #2c2c2c;fill-rule: evenodd"/>
        <path d="M8.22,1.32l.08.06S8.23,1.32,8.22,1.32Z" style="fill: #2c2c2c;fill-rule: evenodd"/>
        <path d="M7.37,2.32s0,0,0,0l0,0s0,0,0,0l0,0S7.4,2.35,7.37,2.32Z" style="fill: #2c2c2c;fill-rule: evenodd"/>
        <path d="M7.29,2.28v0h0l-.05,0s0,0,0,0,0,0,0,0Z" style="fill: #2c2c2c;fill-rule: evenodd"/>
        <path d="M7.51,1.76l.06,0S7.51,1.75,7.51,1.76Z" style="fill: #2c2c2c;fill-rule: evenodd"/>
        <path d="M7.43,1.7l0,0,0,0S7.45,1.7,7.43,1.7Z" style="fill: #2c2c2c;fill-rule: evenodd"/>
        <path d="M7,2.05H7l.11.07s0,0,0,0H7L7,2Z" style="fill: #2c2c2c;fill-rule: evenodd"/>
        <path d="M6.84,2l.09.05A.24.24,0,0,0,6.84,2Z" style="fill: #2c2c2c;fill-rule: evenodd"/>
        <path d="M6.77,2.19h0s0,0,0,0S6.76,2.17,6.77,2.19Z" style="fill: #2c2c2c;fill-rule: evenodd"/>
        <path d="M6.86,2S6.76,2,6.79,2h0Z" style="fill: #2c2c2c;fill-rule: evenodd"/>
        <path d="M6.68,2.08h0l0,0s0,0,0,0S6.66,2.07,6.68,2.08Z" style="fill: #2c2c2c;fill-rule: evenodd"/>
        <path d="M6.73,1.95s-.06,0,0,0l0,0s0,0,0,0l0,0s0,0,0,0,0,0,0,0l0,0h0l-.08,0s0,0,0,0h0s0,0,0,0h0S6.71,2,6.73,1.95Z" style="fill: #2c2c2c;fill-rule: evenodd"/>
        <path d="M6.64,2.06s-.05,0-.05,0V2Z" style="fill: #2c2c2c;fill-rule: evenodd"/>
        <path d="M6.59,1.87h0A0,0,0,0,0,6.59,1.87Z" style="fill: #2c2c2c;fill-rule: evenodd"/>
        <path d="M6.14,1h0s0,0,0,0,0,0,0,0S6.2,1,6.14,1Z" style="fill: #2c2c2c;fill-rule: evenodd"/>
        <path d="M5.67.11h0Z" style="fill: #2c2c2c;fill-rule: evenodd"/>
        <path d="M3,.65l0,0s-.07,0,0,0S3,.67,3,.65Z" style="fill: #2c2c2c;fill-rule: evenodd"/>
        <path d="M2.52.88s0,0,0,0l0,0h0Z" style="fill: #2c2c2c;fill-rule: evenodd"/>
        <path d="M3.55,2.59l0,0v0S3.55,2.61,3.55,2.59Z" style="fill: #2c2c2c;fill-rule: evenodd"/>
        <path d="M0,6.34l0-.06a.09.09,0,0,1,0,0H0v0s0,0,0,0,0,.07,0,.07S0,6.35,0,6.34Z" style="fill: #2c2c2c;fill-rule: evenodd"/>
        <path d="M7.89,3.36l.05,0a.11.11,0,0,0,0,0H8s0,0,0,0l0,0,0,0a.21.21,0,0,1,0,0l0-.05,0-.07a.1.1,0,0,1,0,.06l0,.05s0,0,0,0S7.88,3.35,7.89,3.36Z" style="fill: #2c2c2c;fill-rule: evenodd"/>
        <path d="M6.79,2h0s0,0,0,0-.07,0-.07,0S6.8,2,6.79,2Z" style="fill: #2c2c2c;fill-rule: evenodd"/>
        <path d="M8.21,8.1l-.05.05Z" style="fill: #2c2c2c;fill-rule: evenodd"/>
        <path d="M8.46,7.85s0,0,0,0l0,0S8.47,7.85,8.46,7.85Z" style="fill: #2c2c2c;fill-rule: evenodd"/>
        <path d="M8.57,7.74l0,0v0l0,0,0,0,0,0Z" style="fill: #2c2c2c;fill-rule: evenodd"/>
        <path d="M8.64,7.64l0,0S8.65,7.65,8.64,7.64Z" style="fill: #2c2c2c;fill-rule: evenodd"/>
        <path d="M8.72,7.55l.05-.08-.06.09,0,.07Z" style="fill: #2c2c2c;fill-rule: evenodd"/>
        <path d="M8.87,6.56s0-.07,0-.08S8.86,6.55,8.87,6.56Z" style="fill: #2c2c2c;fill-rule: evenodd"/>
        <path d="M8.92,6.56a.56.56,0,0,0,0-.09C8.93,6.52,8.92,6.53,8.92,6.56Z" style="fill: #2c2c2c;fill-rule: evenodd"/>
        <path d="M8.9,6.45V6.38a.31.31,0,0,0,0-.06l0,.07S8.89,6.44,8.9,6.45Z" style="fill: #2c2c2c;fill-rule: evenodd"/>
        <path d="M9,6.27c0-.06.06-.15,0-.19S9,6.22,9,6.27Z" style="fill: #2c2c2c;fill-rule: evenodd"/>
        <path d="M10.23,5.95s0,0,0-.07A.13.13,0,0,0,10.23,5.95Z" style="fill: #2c2c2c;fill-rule: evenodd"/>
        <path d="M10.25,5.85s0,0,0,0,0-.07,0-.1S10.26,5.85,10.25,5.85Z" style="fill: #2c2c2c;fill-rule: evenodd"/>
        <path d="M9,5.8a.35.35,0,0,0,0-.08S9,5.81,9,5.8Z" style="fill: #2c2c2c;fill-rule: evenodd"/>
        <path d="M9.06,5.38a.43.43,0,0,0,0,.08s0-.06,0-.06V5.34a.36.36,0,0,1,0-.05s0,0,0,0A.16.16,0,0,1,9.06,5.38Z" style="fill: #2c2c2c;fill-rule: evenodd"/>
        <path d="M9,4.91S9,5,9.06,5,9.05,4.92,9,4.91Z" style="fill: #2c2c2c;fill-rule: evenodd"/>
        <path d="M8.89,4.55a.13.13,0,0,1,0,0S8.89,4.56,8.89,4.55Z" style="fill: #2c2c2c;fill-rule: evenodd"/>
        <path d="M8.79,4.24l0,0s0,0,0,0,0,0,0,0v0S8.79,4.22,8.79,4.24Z" style="fill: #2c2c2c;fill-rule: evenodd"/>
        <path d="M8.57,3.69v0l0,.05,0,.05,0,.05.05.1s0,0,0,.05,0,.16.07.15-.06-.18-.1-.27l0-.06a.1.1,0,0,1,0,0v0s0-.06,0-.07,0,0,0,0,0,0,0,0a.17.17,0,0,1,0-.07s0,0,0,0,0,.07,0,.05,0-.06,0-.09h0l0,0s0,0,0,0,0,0,0,0,0,0,0,0h0s0-.05,0,0h0l0,0v0l0,0,0,.09Z" style="fill: #2c2c2c;fill-rule: evenodd"/>
        <path d="M9,3.25l0,.07S9,3.24,9,3.25Z" style="fill: #2c2c2c;fill-rule: evenodd"/>
        <path d="M8.64,3s0,.06.05.08S8.66,3,8.64,3Z" style="fill: #2c2c2c;fill-rule: evenodd"/>
        <path d="M8.1,3.51a.16.16,0,0,0,0,0h0S8.11,3.5,8.1,3.51Z" style="fill: #2c2c2c;fill-rule: evenodd"/>
        <path d="M8.63,2.84l0,0S8.63,2.82,8.63,2.84Z" style="fill: #2c2c2c;fill-rule: evenodd"/>
        <path d="M8.46,2.57s0,.05.06.09S8.48,2.61,8.46,2.57Z" style="fill: #2c2c2c;fill-rule: evenodd"/>
        <path d="M8.33,2.43l-.06-.06s.08.08,0,.07a.45.45,0,0,1,.1.1s0,0,0-.06S8.34,2.45,8.33,2.43Z" style="fill: #2c2c2c;fill-rule: evenodd"/>
        <path d="M8.23,2.45s0,0,0,0S8.25,2.44,8.23,2.45Z" style="fill: #2c2c2c;fill-rule: evenodd"/>
        <path d="M8.3,2.42s0,0-.06-.05S8.29,2.42,8.3,2.42Z" style="fill: #2c2c2c;fill-rule: evenodd"/>
        <path d="M8.16,2.26l0,0,0,0Z" style="fill: #2c2c2c;fill-rule: evenodd"/>
        <path d="M8.18,1.32l-.12-.07.06,0h0l0,0h0l.1.06Z" style="fill: #2c2c2c;fill-rule: evenodd"/>
        <path d="M7.88,2s0,0,0,0S7.87,1.94,7.88,2Z" style="fill: #2c2c2c;fill-rule: evenodd"/>
        <path d="M6.88,2.19l-.07,0S6.9,2.2,6.88,2.19Z" style="fill: #2c2c2c;fill-rule: evenodd"/>
        <path d="M6.37,2.41l-.05,0H6.26l.07,0Z" style="fill: #2c2c2c;fill-rule: evenodd"/>
        <path d="M6.06,1.74s0,0-.05,0Z" style="fill: #2c2c2c;fill-rule: evenodd"/>
        <path d="M5.55,1.65s.07,0,.08,0S5.56,1.64,5.55,1.65Z" style="fill: #2c2c2c;fill-rule: evenodd"/>
        <path d="M5.37,2.19h0S5.36,2.2,5.37,2.19Z" style="fill: #2c2c2c;fill-rule: evenodd"/>
        <path d="M5.22,2.19H5.16S5.22,2.2,5.22,2.19Z" style="fill: #2c2c2c;fill-rule: evenodd"/>
        <path d="M4.82,1.79h0Z" style="fill: #2c2c2c;fill-rule: evenodd"/>
        <path d="M4.68,2h0A.05.05,0,0,0,4.68,2Z" style="fill: #2c2c2c;fill-rule: evenodd"/>
        <path d="M4.6,1.83s0,0,0,0l0,0Z" style="fill: #2c2c2c;fill-rule: evenodd"/>
        <path d="M4.6,2h.05S4.59,2,4.6,2Z" style="fill: #2c2c2c;fill-rule: evenodd"/>
        <path d="M4.54,2.06s0,0,0,0,0,0,0,0l0,0h0s0,0-.06,0S4.54,2.05,4.54,2.06Z" style="fill: #2c2c2c;fill-rule: evenodd"/>
        <path d="M4.41,1.9s0,0,.06,0S4.43,1.88,4.41,1.9Z" style="fill: #2c2c2c;fill-rule: evenodd"/>
        <path d="M4.3,2h0l0,0S4.32,2,4.3,2Z" style="fill: #2c2c2c;fill-rule: evenodd"/>
        <path d="M4.33,2.07l.07,0Z" style="fill: #2c2c2c;fill-rule: evenodd"/>
        <path d="M4.4,2.05s0,0,0,0S4.39,2.06,4.4,2.05Z" style="fill: #2c2c2c;fill-rule: evenodd"/>
        <path d="M4.2,2.14s.05,0,.07,0,0,0,0,0,0,0,0,0l-.05,0s0,0-.06,0Z" style="fill: #2c2c2c;fill-rule: evenodd"/>
        <path d="M4.23,2.17s.08,0,.08,0l0,0Z" style="fill: #2c2c2c;fill-rule: evenodd"/>
        <path d="M4.15,2l.07,0L4.16,2S4.15,2,4.15,2Z" style="fill: #2c2c2c;fill-rule: evenodd"/>
        <path d="M4.17,2s0,0,0,0A0,0,0,0,0,4.17,2Z" style="fill: #2c2c2c;fill-rule: evenodd"/>
        <path d="M4.11,2.07h0Z" style="fill: #2c2c2c;fill-rule: evenodd"/>
        <path d="M4.12,2.22l0,0s-.08,0-.08,0Z" style="fill: #2c2c2c;fill-rule: evenodd"/>
        <path d="M3.89,2.19h.06l0,0S3.9,2.16,3.89,2.19Z" style="fill: #2c2c2c;fill-rule: evenodd"/>
        <path d="M3.82,2.21l0,0Z" style="fill: #2c2c2c;fill-rule: evenodd"/>
        <path d="M3.6,2.29l0,0,0,0Z" style="fill: #2c2c2c;fill-rule: evenodd"/>
        <path d="M3.69,2.45l0,0S3.68,2.43,3.69,2.45Z" style="fill: #2c2c2c;fill-rule: evenodd"/>
        <path d="M3.76,2.59s0,0,0,0,0,0,0,0S3.74,2.59,3.76,2.59Z" style="fill: #2c2c2c;fill-rule: evenodd"/>
        <path d="M3.55,2.31s0,0,0,0S3.55,2.3,3.55,2.31Z" style="fill: #2c2c2c;fill-rule: evenodd"/>
        <path d="M3.5,2.28s0,0,0,0l0,0S3.48,2.28,3.5,2.28Z" style="fill: #2c2c2c;fill-rule: evenodd"/>
        <path d="M3.56,2.64s0,0,0,0S3.55,2.65,3.56,2.64Z" style="fill: #2c2c2c;fill-rule: evenodd"/>
        <path d="M3.21,2.76s0,0,0,0Z" style="fill: #2c2c2c;fill-rule: evenodd"/>
        <path d="M3.46,3l0,0s0,0,0,0A.3.3,0,0,1,3.5,3a0,0,0,0,1,0,0Z" style="fill: #2c2c2c;fill-rule: evenodd"/>
        <path d="M3.3,3.1l0,0h0Z" style="fill: #2c2c2c;fill-rule: evenodd"/>
        <path d="M3.13,2.93l0,0S3.14,2.94,3.13,2.93Z" style="fill: #2c2c2c;fill-rule: evenodd"/>
        <path d="M3.29,3.19s0,0,0,0Z" style="fill: #2c2c2c;fill-rule: evenodd"/>
        <path d="M3.07,3V3h0S3.06,3,3.07,3Z" style="fill: #2c2c2c;fill-rule: evenodd"/>
        <path d="M3,3.08l0,0S3,3.09,3,3.08Z" style="fill: #2c2c2c;fill-rule: evenodd"/>
        <path d="M2.94,3.12l0,0,0,0,0,0,0,0s0,0,0,.06,0,0,0,0,0,0,0,0l.06-.07Z" style="fill: #2c2c2c;fill-rule: evenodd"/>
        <path d="M3.2,3.3s0,0,0,0a.39.39,0,0,1-.06.09L3,3.45l.06,0s0,0,0,0,0,0,0,0h0S3.2,3.31,3.2,3.3Z" style="fill: #2c2c2c;fill-rule: evenodd"/>
        <path d="M3.06,3.46s0,0,0,0,0,.05,0,.07,0-.07.08-.09Z" style="fill: #2c2c2c;fill-rule: evenodd"/>
        <path d="M2.94,3.61s0,0,0,0S2.94,3.6,2.94,3.61Z" style="fill: #2c2c2c;fill-rule: evenodd"/>
        <path d="M2.89,3.67s0,0,0,0S2.88,3.66,2.89,3.67Z" style="fill: #2c2c2c;fill-rule: evenodd"/>
        <path d="M2.46,4.62a.1.1,0,0,0,0,0h0a.09.09,0,0,1,0,0v0a.31.31,0,0,0,0-.07h0Z" style="fill: #2c2c2c;fill-rule: evenodd"/>
        <path d="M2.45,4.69a0,0,0,0,0,0,0A.07.07,0,0,0,2.45,4.69Z" style="fill: #2c2c2c;fill-rule: evenodd"/>
        <path d="M2.41,4.92a.16.16,0,0,0,0-.1A.46.46,0,0,1,2.41,4.92Z" style="fill: #2c2c2c;fill-rule: evenodd"/>
        <path d="M2.38,5.5s0,0,0,.05,0,0,0,0h0S2.39,5.51,2.38,5.5Z" style="fill: #2c2c2c;fill-rule: evenodd"/>
        <path d="M2.39,5.62v.05a.55.55,0,0,0,0,.08.88.88,0,0,0,0-.09s0-.06,0-.09h0Z" style="fill: #2c2c2c;fill-rule: evenodd"/>
        <path d="M2.5,6.14l0-.06,0-.06s0,0,0,0,0-.09,0-.13,0,0,0,0,0,0,0,0a.4.4,0,0,0,0,.09.19.19,0,0,1,0,.09l0,0V6s0,0,0,0l0,.08,0,.09c0,.06,0,.12.05.16s0,0,0,0l0-.14s0,0,0,0l0-.06Z" style="fill: #2c2c2c;fill-rule: evenodd"/>
        <path d="M.88,7.91s0,0,0,0L.91,8s0,0,0,0Z" style="fill: #2c2c2c;fill-rule: evenodd"/>
        <path d="M2.79,6.77h0l0,0Z" style="fill: #2c2c2c;fill-rule: evenodd"/>
        <path d="M1.72,8.72l-.05,0-.05,0,.09.11Z" style="fill: #2c2c2c;fill-rule: evenodd"/>
        <path d="M1.66,8.7l0,0s.05.07.08.07,0,0,0-.07S1.67,8.7,1.66,8.7Z" style="fill: #2c2c2c;fill-rule: evenodd"/>
        <path d="M2.25,9.22l0,0s0,0,0,0S2.24,9.21,2.25,9.22Z" style="fill: #2c2c2c;fill-rule: evenodd"/>
        <path d="M3.47,10.06h0s0,0,.05,0S3.46,10.06,3.47,10.06Z" style="fill: #2c2c2c;fill-rule: evenodd"/>
        <path d="M3.56,10.07s0,0-.06,0S3.54,10.05,3.56,10.07Z" style="fill: #2c2c2c;fill-rule: evenodd"/>
        <path d="M4.84,10.58s0,0,0,0S4.88,10.58,4.84,10.58Z" style="fill: #2c2c2c;fill-rule: evenodd"/>
        <path d="M4.88,10.6h0v0S4.88,10.61,4.88,10.6Z" style="fill: #2c2c2c;fill-rule: evenodd"/>
        <path d="M4.89,10.66h0s0,0,0,0,.06,0,.06,0Z" style="fill: #2c2c2c;fill-rule: evenodd"/>
        <path d="M7.2,8.13s-.05,0,0,0Z" style="fill: #2c2c2c;fill-rule: evenodd"/>
        <path d="M7.36,8.07s-.05,0,0,0l0,0,0,0s0,0,0,0Z" style="fill: #2c2c2c;fill-rule: evenodd"/>
        <path d="M7.7,7.84s.07,0,.08-.07a.18.18,0,0,0-.09,0S7.71,7.82,7.7,7.84Z" style="fill: #2c2c2c;fill-rule: evenodd"/>
        <path d="M8.59,6.89v.05a.24.24,0,0,1,0,.1.36.36,0,0,0,.05-.1h0s0,0,0,0V6.87a.38.38,0,0,0,0-.05v.07Z" style="fill: #2c2c2c;fill-rule: evenodd"/>
        <path d="M8.62,2.81s0,0,0,0,0,0,0,0,0,0,0,0,0-.06-.06-.06,0,0,0,.06Z" style="fill: #2c2c2c;fill-rule: evenodd"/>
        <path d="M7.67,1.91l0,0,.07,0s0,0,0,0-.12-.07-.15-.09,0,0,0,0l0,0Z" style="fill: #2c2c2c;fill-rule: evenodd"/>
        <path d="M7.6,1.83l0,0S7.63,1.85,7.6,1.83Z" style="fill: #2c2c2c;fill-rule: evenodd"/>
        <path d="M6.41,1.92h0s.06,0,.06,0v0Z" style="fill: #2c2c2c;fill-rule: evenodd"/>
        <path d="M6.26,1h.05s0,0,0,0S6.25,1,6.26,1Z" style="fill: #2c2c2c;fill-rule: evenodd"/>
        <path d="M5.07,2.28h0Z" style="fill: #2c2c2c;fill-rule: evenodd"/>
        <path d="M5,1.84H4.94A.08.08,0,0,0,5,1.84Z" style="fill: #2c2c2c;fill-rule: evenodd"/>
        <path d="M5.06,2.2h0Z" style="fill: #2c2c2c;fill-rule: evenodd"/>
        <path d="M4.8,1.76s0,0,0,0h0s0,0,0,0,0,0,0,0S4.8,1.78,4.8,1.76Z" style="fill: #2c2c2c;fill-rule: evenodd"/>
        <path d="M4.57,1.89a.39.39,0,0,0,.1,0S4.57,1.87,4.57,1.89Z" style="fill: #2c2c2c;fill-rule: evenodd"/>
        <path d="M4.54,1.89l-.05,0h0S4.54,1.89,4.54,1.89Z" style="fill: #2c2c2c;fill-rule: evenodd"/>
        <path d="M4.49,1.94h0s0,0,0,0H4.5S4.49,1.93,4.49,1.94Z" style="fill: #2c2c2c;fill-rule: evenodd"/>
        <path d="M4.43,1.93s.05,0,0,0l0,0s0,0,0,0S4.41,1.92,4.43,1.93Z" style="fill: #2c2c2c;fill-rule: evenodd"/>
        <path d="M4.46,2.07a.45.45,0,0,0-.11,0l0,0h0S4.46,2.07,4.46,2.07Z" style="fill: #2c2c2c;fill-rule: evenodd"/>
        <path d="M4.27,1.92l0,0s0,0,0,0h0s-.06,0,0,0l.15-.06s0,0,0,0-.06,0-.09,0,0,0,0,0h0S4.28,1.91,4.27,1.92Z" style="fill: #2c2c2c;fill-rule: evenodd"/>
        <path d="M4.35,2.08l-.07,0S4.34,2.1,4.35,2.08Z" style="fill: #2c2c2c;fill-rule: evenodd"/>
        <path d="M4.27,2.12h0s0,0,0,0l0,0S4.28,2.1,4.27,2.12Z" style="fill: #2c2c2c;fill-rule: evenodd"/>
        <path d="M4.13,2s0,0,0,0h0S4.13,2,4.13,2Z" style="fill: #2c2c2c;fill-rule: evenodd"/>
        <path d="M4.22,2.05a.08.08,0,0,0,0,0S4.19,2.07,4.22,2.05Z" style="fill: #2c2c2c;fill-rule: evenodd"/>
        <path d="M4.12,2.14l.07,0s0,0,0,0l-.11,0,0,0,0,0H4l0,0,.05,0Z" style="fill: #2c2c2c;fill-rule: evenodd"/>
        <path d="M4.24,2.26c.08,0,.06,0,0,0Z" style="fill: #2c2c2c;fill-rule: evenodd"/>
        <path d="M4.12,2.06l.06,0S4.13,2,4.12,2.06Z" style="fill: #2c2c2c;fill-rule: evenodd"/>
        <path d="M4,2H4A.11.11,0,0,0,4.1,2s0,0,0,0h0s0,0,0,0l.05,0h0l0,0s0,0,0,0L4,2Z" style="fill: #2c2c2c;fill-rule: evenodd"/>
        <path d="M4.08,2,4,2Z" style="fill: #2c2c2c;fill-rule: evenodd"/>
        <path d="M4,2.1s0,0,0,0,0,0,0,0S4,2.1,4,2.1Z" style="fill: #2c2c2c;fill-rule: evenodd"/>
        <path d="M3.78,2.24h0S3.8,2.23,3.78,2.24Z" style="fill: #2c2c2c;fill-rule: evenodd"/>
        <path d="M3.65,2.25s0,0,0,0,.06,0,0,0l.07,0S3.68,2.24,3.65,2.25Z" style="fill: #2c2c2c;fill-rule: evenodd"/>
        <path d="M3.74,2.39l0,0s.05,0,.07,0S3.73,2.41,3.74,2.39Z" style="fill: #2c2c2c;fill-rule: evenodd"/>
        <path d="M3.8,2.45s0,0,0,.05S3.8,2.44,3.8,2.45Z" style="fill: #2c2c2c;fill-rule: evenodd"/>
        <path d="M3.68,2.54s0,0,0,0S3.66,2.55,3.68,2.54Z" style="fill: #2c2c2c;fill-rule: evenodd"/>
        <path d="M3,3.1l.06,0h0s0,0,0,0H3S3,3.09,3,3.1Z" style="fill: #2c2c2c;fill-rule: evenodd"/>
        <path d="M2.92,3.09a.4.4,0,0,0-.06.08h0s0,0,0-.05h0Z" style="fill: #2c2c2c;fill-rule: evenodd"/>
        <path d="M2.86,3.72h0s0,0,0,.05,0-.05,0,0a.16.16,0,0,0,0-.06A0,0,0,0,0,2.86,3.72Z" style="fill: #2c2c2c;fill-rule: evenodd"/>
        <path d="M2.39,4.79c0,.06,0,.14,0,.19h0v.15h0a.35.35,0,0,1,0,.09.16.16,0,0,0,0,0,.08.08,0,0,0,0,0,.25.25,0,0,0,0-.06s0,0,0,0,0-.07,0-.11a.48.48,0,0,1,0-.11.16.16,0,0,1,0-.08l0-.07S2.4,4.84,2.39,4.79Z" style="fill: #2c2c2c;fill-rule: evenodd"/>
        <path d="M2.38,5.39V5.28h0s0,0,0,0,0,0,0,.05,0,0,0,0S2.37,5.39,2.38,5.39Z" style="fill: #2c2c2c;fill-rule: evenodd"/>
        <path d="M.54,7.44h0a.18.18,0,0,1,0,.07S.55,7.47.54,7.44Z" style="fill: #2c2c2c;fill-rule: evenodd"/>
        <path d="M.59,7.56s0-.07,0,0,0,0,0,0S.58,7.55.59,7.56Z" style="fill: #2c2c2c;fill-rule: evenodd"/>
        <path d="M2.57,6.36s0,0,0,0,0,0,0,0,0,0,0,0,0,0,0,0S2.59,6.35,2.57,6.36Z" style="fill: #2c2c2c;fill-rule: evenodd"/>
        <path d="M.8,7.83s0,0,0,0S.8,7.81.8,7.83Z" style="fill: #2c2c2c;fill-rule: evenodd"/>
        <path d="M2.62,6.45s0,0,0,0l0,.07,0,0s0,0,0,0v0s0,0,0,0,0,0,0,0,0,0,0,0Z" style="fill: #2c2c2c;fill-rule: evenodd"/>
        <path d="M2.84,6.89s0,0,0,0S2.84,6.89,2.84,6.89Z" style="fill: #2c2c2c;fill-rule: evenodd"/>
        <path d="M1.85,8.91a.09.09,0,0,1,0,0s-.07-.1-.1-.11l.07.09,0,0,0,0s0,0,0,0S1.87,8.93,1.85,8.91Z" style="fill: #2c2c2c;fill-rule: evenodd"/>
        <path d="M1.94,9s0,0-.05,0S1.93,9,1.94,9Z" style="fill: #2c2c2c;fill-rule: evenodd"/>
        <path d="M2.9,9.68l-.15-.1s.07,0,0,0S2.9,9.7,2.9,9.68Z" style="fill: #2c2c2c;fill-rule: evenodd"/>
        <path d="M3.33,9.92s0,0,0,0l0,0S3.34,9.92,3.33,9.92Z" style="fill: #2c2c2c;fill-rule: evenodd"/>
        <path d="M7.53,7.88l-.07,0L7.39,8,7.32,8a.09.09,0,0,0,0,.05l.06,0,.07,0,.08,0,.07,0h0s0,0,.05,0l-.08,0S7.54,7.88,7.53,7.88Z" style="fill: #2c2c2c;fill-rule: evenodd"/>
        <path d="M7.64,7.86l0,0h0s0,0,0,0,0,0,0,0l0,0S7.65,7.86,7.64,7.86Z" style="fill: #2c2c2c;fill-rule: evenodd"/>
        <path d="M.84,7.89s0-.08-.08-.12,0,0,0,0,0,0,0,0,0,0,0,0L.64,7.63a.78.78,0,0,0,0,.12s0-.07,0,0,.08.12,0,0l0,.07,0,0,.06.06,0-.09s0,.08.07.1,0,0,0,0,0,0,0-.11Z" style="fill: #2c2c2c;fill-rule: evenodd"/>
        <path d="M1.55,8.59l.06,0,0-.05Z" style="fill: #2c2c2c;fill-rule: evenodd"/>
      </g>
    </g>
  </g>
</svg>
